<?xml version="1.0" standalone="no"?>
<!DOCTYPE svg PUBLIC "-//W3C//DTD SVG 20010904//EN"
 "http://www.w3.org/TR/2001/REC-SVG-20010904/DTD/svg10.dtd">
<svg version="1.0" xmlns="http://www.w3.org/2000/svg"
 width="2100.000000pt" height="2100.000000pt" viewBox="0 0 2100.000000 2100.000000"
 preserveAspectRatio="xMidYMid meet">
<metadata>
Created by potrace 1.14, written by Peter Selinger 2001-2017
</metadata>
<g transform="translate(0.000000,2100.000000) scale(0.100000,-0.100000)"
fill="#000000" stroke="none">
<path d="M10150 17644 c0 -10 -15 -12 -145 -18 -28 -1 -56 -5 -63 -10 -7 -4
-12 -2 -12 6 0 10 -2 10 -9 -1 -6 -9 -11 -10 -15 -2 -5 8 -13 8 -27 1 -10 -6
-19 -9 -19 -7 0 3 -18 1 -40 -3 -27 -5 -40 -4 -40 4 0 6 -4 5 -9 -3 -5 -8 -16
-11 -24 -8 -8 3 -20 0 -27 -6 -10 -9 -11 -9 -5 2 6 10 4 12 -6 5 -14 -8 -45
-13 -106 -16 -18 -1 -33 -5 -33 -8 0 -3 -15 -5 -32 -5 -40 -1 -116 -13 -128
-20 -4 -3 -11 1 -13 7 -4 10 -6 10 -6 0 -1 -7 -5 -10 -11 -7 -5 3 -10 2 -10
-3 0 -5 -11 -8 -25 -7 -14 2 -25 -2 -25 -8 0 -9 -2 -9 -8 0 -5 7 -13 9 -21 3
-8 -4 -20 -6 -28 -3 -7 3 -13 0 -13 -7 0 -9 -3 -10 -13 -1 -9 6 -17 7 -23 1
-10 -10 -44 -18 -82 -19 -16 -1 -21 -5 -16 -13 6 -10 5 -10 -8 -1 -8 7 -18 10
-22 6 -7 -7 -24 -11 -63 -15 -13 -1 -23 -5 -23 -8 0 -5 -28 -10 -67 -13 -7 0
-13 -4 -13 -8 0 -5 -7 -6 -15 -3 -8 3 -20 2 -27 -2 -7 -4 -19 -9 -28 -10 -8
-1 -28 -6 -45 -10 -16 -4 -38 -7 -47 -8 -9 0 -15 -3 -12 -7 2 -4 -13 -10 -34
-13 -61 -10 -67 -12 -81 -21 -8 -4 -24 -9 -35 -11 -37 -6 -51 -9 -63 -17 -7
-5 -13 -5 -13 0 0 4 -5 1 -10 -7 -9 -13 -10 -13 -10 0 0 11 -2 12 -8 2 -5 -7
-17 -14 -28 -16 -50 -10 -74 -19 -74 -27 0 -5 -7 -6 -15 -3 -8 4 -21 2 -28 -4
-13 -10 -67 -26 -79 -24 -5 1 -8 -2 -8 -8 0 -6 -3 -9 -7 -9 -5 1 -10 1 -13 -1
-3 -1 -16 -3 -29 -6 -14 -2 -30 -9 -36 -14 -7 -5 -15 -7 -18 -3 -4 3 -7 1 -7
-4 0 -6 -8 -10 -17 -9 -10 2 -21 -1 -25 -7 -3 -6 -15 -11 -26 -12 -11 -1 -27
-7 -36 -14 -9 -8 -16 -11 -16 -7 0 4 -13 0 -30 -9 -16 -8 -32 -15 -35 -14 -4
0 -18 -7 -32 -16 -17 -12 -23 -13 -18 -4 5 8 -1 5 -13 -5 -12 -11 -22 -16 -22
-11 0 4 -6 2 -13 -4 -8 -6 -17 -8 -20 -4 -4 3 -7 1 -7 -5 0 -7 -3 -11 -7 -10
-5 0 -28 -8 -53 -20 -25 -12 -51 -22 -57 -22 -7 0 -13 -5 -13 -10 0 -6 -3 -9
-7 -8 -5 1 -21 -5 -38 -12 -16 -7 -33 -13 -37 -12 -5 1 -8 -2 -8 -8 0 -6 -3
-9 -7 -8 -5 1 -18 -3 -30 -10 -13 -7 -23 -10 -23 -7 0 2 -9 -3 -20 -13 -12 -9
-22 -15 -23 -13 -1 2 -13 -2 -27 -9 -14 -8 -28 -13 -32 -12 -5 1 -8 -3 -8 -9
0 -5 -4 -7 -10 -4 -5 3 -10 1 -10 -4 0 -6 -5 -11 -10 -11 -6 0 -28 -11 -50
-25 -22 -14 -40 -22 -40 -19 0 4 -8 0 -18 -9 -10 -10 -22 -14 -25 -10 -4 3 -7
1 -7 -5 0 -7 -7 -12 -15 -12 -8 0 -15 -5 -15 -11 0 -5 -4 -7 -10 -4 -5 3 -10
1 -10 -4 0 -6 -3 -10 -7 -9 -13 3 -63 -25 -63 -34 0 -5 -4 -6 -10 -3 -5 3 -10
1 -10 -5 0 -6 -4 -9 -9 -6 -5 3 -11 0 -14 -8 -3 -7 -18 -17 -34 -21 -15 -3
-31 -12 -35 -18 -4 -7 -11 -12 -15 -12 -11 -1 -66 -37 -75 -50 -4 -5 -8 -7 -8
-2 0 8 -143 -84 -148 -96 -2 -4 -8 -5 -13 -1 -5 3 -12 -2 -15 -10 -3 -9 -10
-13 -15 -10 -5 3 -9 1 -9 -5 0 -5 -9 -13 -20 -16 -11 -4 -17 -11 -14 -17 4 -6
3 -8 -3 -5 -10 6 -101 -54 -115 -76 -4 -6 -8 -8 -8 -4 0 8 -98 -62 -142 -102
-16 -14 -28 -22 -28 -18 0 3 -10 -4 -23 -16 -13 -12 -38 -33 -56 -47 -18 -14
-38 -30 -45 -35 -6 -6 -41 -34 -78 -64 -38 -30 -68 -59 -68 -64 0 -6 -3 -8 -6
-5 -3 4 -21 -8 -40 -25 -18 -18 -45 -41 -58 -52 -14 -10 -22 -24 -19 -30 4 -5
2 -6 -2 -2 -5 4 -21 -3 -35 -17 -122 -120 -183 -176 -191 -176 -5 0 -9 -5 -9
-10 0 -6 -22 -32 -49 -59 l-50 -47 802 0 c780 0 802 1 820 20 9 10 17 15 17
10 0 -5 4 -4 8 2 10 16 130 104 142 104 5 0 14 8 19 18 6 9 11 13 11 9 0 -5 6
-2 14 5 20 19 53 41 60 40 3 -1 17 10 32 23 15 14 30 22 34 20 4 -3 10 2 14
10 3 8 12 15 21 15 8 0 15 5 15 11 0 5 4 8 9 4 6 -3 14 3 20 12 6 10 11 14 11
10 0 -4 10 1 22 13 12 11 27 20 34 20 18 0 64 26 58 33 -4 3 5 9 20 13 14 3
26 10 26 16 0 5 5 6 10 3 6 -3 10 -1 10 5 0 7 7 10 15 6 8 -3 15 -1 15 5 0 5
16 17 35 25 19 8 35 20 35 27 0 8 4 7 10 -3 6 -10 10 -11 10 -2 0 6 6 12 14
12 8 0 16 5 18 11 2 5 10 11 18 13 8 1 31 11 50 21 19 11 38 18 43 17 4 -1 7
2 7 7 0 5 14 12 30 16 17 4 30 11 30 16 0 5 9 9 19 9 11 0 23 5 26 10 4 6 10
8 15 5 5 -3 15 1 22 9 15 14 58 31 71 28 4 -1 7 3 7 9 0 5 5 7 10 4 6 -3 10
-1 10 4 0 6 11 11 25 11 14 0 25 5 25 11 0 5 5 7 10 4 6 -3 10 -2 10 4 0 6 7
8 15 5 8 -4 15 -2 15 3 0 5 21 15 48 22 26 8 49 18 52 22 3 4 17 9 31 11 14 2
38 12 54 22 17 11 24 13 19 5 -6 -11 -5 -12 8 -2 8 7 18 10 21 6 4 -3 7 -1 7
5 0 7 3 11 8 10 4 -1 34 7 67 17 33 10 66 20 74 21 8 2 17 8 21 14 6 9 9 9 15
1 5 -9 11 -9 22 1 15 13 42 20 80 22 11 1 19 4 16 9 -2 4 7 7 20 7 13 0 27 3
31 7 8 8 31 13 64 15 12 0 22 3 22 7 0 6 17 10 58 13 6 1 12 4 12 7 0 3 10 7
23 7 27 2 64 11 77 19 6 3 10 0 10 -7 0 -9 3 -9 10 2 5 8 10 11 10 6 0 -5 6
-4 13 1 6 5 19 9 27 8 8 -1 29 4 46 11 23 9 35 9 43 1 8 -8 11 -8 11 0 0 7 8
11 18 11 9 0 35 4 57 9 22 5 50 8 63 7 12 -1 22 3 22 8 0 4 11 6 25 2 16 -4
25 -2 25 5 0 9 5 9 20 1 12 -7 20 -7 20 -1 0 5 9 8 20 6 11 -2 20 2 20 8 0 8
3 8 9 -2 5 -7 11 -9 14 -4 3 5 28 9 56 8 28 0 51 4 51 9 0 4 7 6 15 3 8 -4 17
-2 21 4 4 7 10 6 19 -1 9 -8 20 -8 32 -2 12 7 25 7 35 1 11 -6 19 -5 23 1 5 8
12 7 23 -2 13 -11 14 -11 8 1 -7 11 0 13 33 9 22 -2 41 -1 41 2 0 3 110 5 244
6 157 0 243 -3 239 -9 -4 -6 -1 -7 8 -2 19 13 49 13 56 2 3 -5 9 -3 14 4 5 8
9 10 9 4 0 -5 26 -10 58 -10 31 0 60 -4 64 -10 5 -6 8 -5 8 3 0 8 5 10 12 6
21 -13 59 -14 51 -1 -5 9 -3 9 8 0 8 -6 37 -13 64 -15 28 -2 56 -7 63 -11 7
-5 12 -3 12 4 0 7 4 8 13 2 6 -5 32 -11 57 -12 25 -2 52 -7 62 -12 11 -6 19
-5 23 1 5 8 11 7 21 -1 8 -6 14 -8 14 -3 0 5 5 2 10 -6 6 -9 10 -10 10 -3 0 9
10 9 40 -2 30 -11 40 -11 40 -2 0 9 3 8 9 -1 4 -7 12 -12 17 -11 23 4 35 -2
28 -13 -5 -8 -1 -8 10 1 10 9 20 11 24 5 4 -5 16 -10 27 -10 39 -3 70 -10 83
-17 6 -5 17 -5 22 -2 6 3 10 2 10 -3 0 -5 14 -8 30 -7 17 1 30 -2 30 -7 0 -4
13 -8 28 -8 15 0 34 -6 41 -12 11 -11 12 -10 6 2 -5 9 1 7 15 -5 14 -12 20
-14 15 -5 -8 13 -7 13 8 1 9 -7 17 -10 17 -5 0 4 5 3 11 -3 6 -6 17 -9 24 -7
7 3 16 1 19 -5 4 -6 13 -8 21 -4 8 3 15 1 15 -4 0 -5 6 -10 13 -11 6 -1 26 -3
42 -5 17 -2 29 -8 28 -14 -1 -6 9 -8 22 -5 14 2 25 0 25 -7 0 -6 7 -8 17 -4
10 4 14 2 10 -4 -4 -6 6 -9 23 -8 17 1 30 -2 30 -7 0 -4 12 -8 26 -8 14 0 23
-4 20 -8 -2 -4 6 -9 19 -10 12 -1 36 -7 51 -13 16 -7 32 -12 37 -11 4 1 7 -2
7 -6 0 -4 8 -8 19 -9 10 -1 38 -11 63 -23 25 -11 55 -22 67 -23 11 -1 21 -4
21 -8 0 -7 39 -22 53 -20 4 1 7 -4 7 -10 0 -5 3 -8 8 -6 4 3 25 -3 46 -14 22
-10 46 -19 53 -19 7 0 13 -4 13 -10 0 -5 7 -10 15 -10 8 0 30 -9 50 -20 20
-11 42 -20 50 -20 8 0 15 -4 15 -8 0 -5 18 -15 40 -22 22 -7 40 -17 40 -22 0
-4 9 -8 20 -8 11 0 20 -4 20 -10 0 -5 8 -10 18 -10 10 0 27 -8 38 -17 11 -10
26 -19 34 -21 8 -2 17 -8 18 -13 2 -5 8 -7 13 -3 5 3 9 0 9 -7 0 -7 3 -10 6
-7 5 5 104 -49 130 -71 7 -5 15 -7 18 -4 3 4 6 1 6 -5 0 -7 7 -12 15 -12 8 0
15 -5 15 -11 0 -5 5 -7 10 -4 6 3 13 -1 16 -9 3 -9 10 -13 15 -10 5 3 9 0 9
-6 0 -6 4 -9 9 -6 5 4 11 3 13 -1 5 -12 66 -53 78 -53 5 0 10 -5 10 -12 0 -6
3 -8 6 -5 4 4 21 -5 38 -18 44 -36 48 -38 78 -54 15 -8 25 -19 21 -24 -3 -6
-1 -7 4 -4 6 4 22 -4 37 -18 14 -13 26 -21 26 -17 0 4 7 -2 15 -12 8 -11 15
-16 15 -10 0 5 4 4 8 -1 4 -6 19 -20 33 -30 25 -20 44 -20 805 -18 428 1 782
2 787 2 14 2 7 21 -8 21 -8 0 -15 4 -15 9 0 14 -67 80 -74 74 -3 -4 -6 -1 -6
5 0 6 -11 22 -25 36 -14 14 -25 23 -25 20 0 -3 -6 1 -14 8 -8 7 -12 16 -9 21
2 4 1 7 -4 7 -4 0 -33 23 -62 50 -30 28 -58 50 -62 50 -4 0 -11 9 -14 21 -4
11 -9 18 -12 15 -3 -3 -14 4 -24 16 -11 11 -19 18 -19 15 0 -3 -18 12 -39 33
-22 22 -42 40 -45 40 -3 0 -14 8 -24 18 -10 9 -35 31 -56 47 -36 29 -46 36
-95 78 -12 9 -23 17 -25 17 -3 0 -19 13 -37 30 -18 16 -37 26 -42 23 -7 -4 -8
1 -3 13 4 10 4 15 0 11 -4 -4 -13 -2 -21 4 -7 6 -13 9 -13 5 0 -3 -13 8 -28
24 -16 16 -32 27 -35 23 -4 -3 -9 2 -13 11 -3 9 -12 16 -20 16 -8 0 -22 9 -31
20 -10 11 -23 20 -30 20 -6 0 -18 9 -26 21 -8 11 -22 22 -32 23 -9 1 -21 9
-26 17 -5 8 -9 11 -9 7 0 -7 -14 3 -54 37 -6 6 -18 11 -26 13 -8 2 -17 7 -20
11 -3 4 -26 19 -52 34 -27 15 -48 32 -48 38 0 6 -4 8 -10 4 -5 -3 -18 3 -30
15 -11 11 -21 20 -22 19 -7 -3 -78 36 -78 42 0 3 -14 9 -31 13 -17 3 -28 10
-24 16 3 5 -3 10 -14 10 -12 0 -21 5 -21 10 0 6 -7 10 -16 10 -8 0 -12 4 -9
10 3 6 -1 7 -9 4 -9 -3 -16 -1 -16 6 0 6 -4 8 -10 5 -5 -3 -10 -1 -10 5 0 6
-4 8 -10 5 -5 -3 -10 -1 -10 5 0 6 -4 9 -9 6 -5 -4 -11 -2 -13 3 -1 5 -10 11
-18 13 -8 2 -21 9 -28 16 -8 7 -18 10 -23 7 -5 -4 -9 -1 -9 4 0 6 -7 11 -15
11 -8 0 -15 4 -15 8 0 5 -18 15 -40 22 -22 7 -40 17 -40 22 0 4 -9 8 -20 8
-11 0 -20 4 -20 9 0 8 -40 23 -56 21 -3 -1 -12 7 -20 17 -7 10 -14 14 -14 9 0
-5 -7 -3 -15 4 -8 7 -15 9 -15 6 0 -4 -7 0 -16 8 -8 9 -20 14 -25 11 -5 -4 -9
-1 -9 5 0 6 -4 8 -10 5 -5 -3 -10 -1 -10 5 0 7 -7 10 -15 6 -8 -3 -15 -1 -15
4 0 6 -9 10 -20 10 -11 0 -20 5 -20 10 0 6 -3 9 -7 8 -5 -1 -21 4 -38 11 -16
7 -31 12 -32 12 -2 0 -19 8 -39 19 -19 11 -39 18 -44 15 -4 -2 -13 2 -20 10
-7 8 -16 12 -21 9 -5 -3 -9 0 -9 5 0 6 -3 10 -7 10 -19 -4 -73 15 -73 24 0 6
-3 8 -6 4 -4 -3 -19 0 -35 9 -16 8 -32 15 -36 15 -5 1 -17 5 -29 9 -11 5 -40
14 -65 21 -24 7 -46 15 -49 19 -5 5 -15 8 -54 16 -11 2 -24 8 -29 13 -5 5 -16
7 -23 4 -8 -3 -14 -1 -14 4 0 5 -7 10 -15 11 -8 1 -22 3 -30 4 -8 1 -15 5 -15
9 0 4 -6 7 -12 6 -30 -1 -49 4 -44 11 2 4 -14 7 -36 7 -25 0 -43 5 -48 15 -5
8 -11 14 -14 13 -16 -7 -56 -2 -52 6 4 5 -2 8 -11 6 -10 -1 -22 0 -28 4 -5 3
-14 6 -20 7 -43 8 -100 22 -100 25 0 1 -34 8 -62 11 -7 1 -13 4 -13 8 0 3 -10
7 -22 8 -26 2 -73 10 -73 12 0 2 -22 7 -55 11 -14 2 -28 9 -32 14 -5 6 -8 4
-8 -5 0 -10 -3 -11 -8 -4 -4 7 -23 13 -42 15 -19 2 -40 7 -46 11 -6 5 -31 10
-55 12 -24 2 -62 7 -84 11 -22 5 -52 8 -67 8 -16 0 -28 4 -28 7 0 7 -20 10
-64 10 -16 0 -33 5 -38 12 -6 11 -8 10 -8 0 0 -7 -5 -10 -11 -6 -7 4 -30 8
-53 10 -48 4 -119 12 -126 15 -3 1 -13 1 -22 0 -10 -1 -18 1 -18 6 0 4 -27 7
-60 7 -38 -1 -57 2 -53 9 4 6 1 7 -8 1 -18 -11 -39 -14 -39 -6 0 4 -26 8 -58
9 -160 4 -191 7 -185 17 4 6 0 5 -9 -2 -12 -9 -18 -10 -23 -2 -5 8 -10 8 -20
0 -9 -8 -15 -8 -20 0 -4 7 -12 7 -26 0 -10 -6 -19 -7 -19 -2 0 4 -9 8 -20 8
-11 0 -20 -4 -20 -9 0 -4 -6 -5 -12 -1 -17 11 -238 11 -238 1 0 -5 -5 -5 -12
-1 -16 10 -88 11 -88 1 0 -4 -8 -3 -18 2 -11 6 -24 6 -34 0 -11 -6 -19 -6 -23
1 -4 6 -12 7 -18 3 -17 -11 -41 -10 -49 2 -5 6 -8 6 -8 -1z"/>
<path d="M16066 15242 c-4 -3 -237 -8 -518 -9 -280 -1 -512 -4 -515 -7 -3 -2
-15 -1 -28 4 -13 5 -26 6 -29 3 -8 -8 -301 -7 -315 1 -6 4 -11 2 -11 -3 0 -7
-13 -9 -34 -5 -19 3 -37 0 -41 -6 -4 -6 -12 -7 -24 -1 -9 6 -26 8 -37 7 -10
-2 -25 1 -31 7 -9 6 -13 6 -13 -2 0 -8 -8 -10 -21 -6 -16 6 -20 4 -13 -6 6
-11 5 -12 -7 -3 -20 15 -61 16 -52 1 4 -7 0 -6 -10 2 -9 7 -17 10 -17 6 0 -4
-8 -1 -17 6 -13 11 -15 11 -9 1 6 -10 -1 -12 -33 -8 -29 3 -39 2 -35 -6 5 -7
2 -8 -7 -3 -19 12 -109 12 -109 0 0 -7 -3 -7 -8 0 -11 16 -45 19 -37 3 6 -10
5 -10 -5 -1 -9 8 -19 9 -31 3 -11 -7 -20 -7 -24 0 -3 5 -11 10 -16 10 -6 0 -8
-4 -5 -8 3 -5 -1 -9 -9 -9 -8 0 -15 4 -15 8 0 9 -41 6 -59 -5 -8 -5 -16 -4
-21 4 -8 13 -16 13 -42 -1 -11 -6 -18 -6 -18 0 0 10 -25 9 -36 -2 -4 -3 -15
-2 -25 4 -13 7 -19 6 -19 -1 0 -7 -6 -8 -18 -1 -11 6 -24 6 -37 -1 -14 -8 -20
-8 -23 0 -3 9 -9 9 -24 1 -16 -8 -19 -8 -13 1 6 10 3 10 -11 2 -11 -6 -27 -7
-42 -1 -14 5 -21 5 -17 0 3 -6 -4 -9 -15 -8 -11 1 -20 5 -20 10 0 5 -7 3 -17
-4 -9 -8 -17 -13 -17 -12 -1 1 -14 6 -29 12 -16 6 -26 7 -23 3 6 -10 -76 -8
-91 1 -7 4 -14 3 -18 -3 -6 -10 -46 -7 -66 6 -7 4 -10 3 -7 -2 4 -5 -153 -9
-380 -9 -213 0 -393 -4 -399 -9 -8 -5 -13 -5 -13 0 0 11 -92 10 -108 0 -7 -4
-12 -4 -12 1 0 4 -39 7 -87 5 -255 -7 -313 -6 -313 3 0 7 -3 7 -8 0 -9 -13
-105 -13 -114 0 -5 6 -8 5 -8 -2 0 -7 -7 -10 -17 -6 -12 5 -14 3 -8 -7 6 -10
4 -11 -6 -4 -22 14 -180 14 -172 0 3 -6 0 -6 -8 2 -17 15 -43 16 -33 0 5 -7 3
-8 -7 -2 -19 12 -50 12 -73 1 -13 -6 -16 -6 -12 2 8 13 -21 10 -43 -3 -10 -6
-12 -5 -7 2 8 13 -20 12 -41 -1 -7 -5 -19 -5 -25 0 -17 10 -49 11 -70 1 -10
-5 -19 -4 -23 2 -4 6 -12 7 -18 3 -11 -6 -50 -8 -62 -3 -14 7 -31 5 -37 -5 -5
-6 -8 -5 -8 4 0 11 -3 11 -17 0 -14 -12 -15 -12 -9 -1 7 11 4 12 -13 3 -11 -7
-21 -8 -21 -3 0 10 -30 9 -48 -2 -7 -4 -12 -2 -12 6 0 9 -3 9 -10 -2 -8 -12
-10 -12 -10 -1 0 10 -3 11 -14 2 -9 -8 -16 -8 -20 -2 -5 7 -15 7 -32 1 -17 -7
-23 -7 -19 0 4 6 -2 7 -18 1 -15 -6 -28 -6 -34 0 -5 5 -21 5 -41 0 -22 -7 -32
-6 -32 1 0 6 -6 6 -15 -2 -12 -10 -15 -10 -15 1 0 9 -3 10 -8 4 -9 -13 -52
-15 -52 -2 0 5 -8 3 -17 -4 -15 -12 -16 -12 -8 1 8 13 6 13 -8 2 -9 -8 -22
-10 -29 -6 -17 11 -58 11 -65 1 -3 -5 -9 -3 -14 4 -5 8 -9 9 -9 3 0 -12 -90
-11 -110 1 -8 5 -11 4 -7 -2 8 -13 -106 -11 -115 2 -5 7 -8 7 -8 0 0 -13 -113
-15 -121 -2 -3 5 -9 -1 -12 -12 -3 -12 0 -21 6 -21 6 0 8 -3 4 -6 -3 -3 3 -16
14 -27 11 -12 22 -32 25 -44 4 -13 10 -23 16 -23 5 0 6 -4 3 -10 -3 -5 -2 -10
2 -10 11 0 47 -60 36 -60 -4 0 0 -5 10 -11 9 -6 15 -14 12 -20 -4 -5 -1 -9 4
-9 6 0 11 -7 11 -15 0 -8 5 -15 11 -15 5 0 8 -4 5 -9 -3 -5 1 -12 10 -15 8 -3
13 -10 10 -15 -4 -5 -1 -15 6 -23 7 -7 22 -30 33 -50 11 -21 23 -38 28 -38 4
0 5 -4 2 -10 -3 -5 -1 -10 4 -10 6 0 11 -4 11 -10 0 -5 25 -50 55 -100 30 -49
52 -90 48 -90 -4 0 1 -6 12 -13 11 -9 15 -19 10 -27 -5 -9 -4 -11 3 -6 7 4 12
1 12 -8 0 -9 5 -16 10 -16 6 0 10 -7 10 -15 0 -8 9 -24 20 -35 11 -11 19 -21
18 -23 -5 -6 37 -77 45 -77 4 0 5 -4 2 -10 -3 -5 -1 -10 4 -10 6 0 11 -9 11
-19 0 -10 7 -22 16 -25 8 -3 13 -10 9 -15 -3 -6 2 -14 11 -19 9 -5 16 -13 16
-18 1 -14 11 -38 22 -51 32 -37 38 -45 33 -50 -3 -3 3 -14 14 -26 10 -11 19
-27 19 -34 0 -7 5 -13 10 -13 6 0 10 -7 10 -15 0 -8 4 -15 10 -15 5 0 9 -3 8
-7 -3 -13 25 -63 34 -63 5 0 7 -4 4 -9 -3 -4 5 -21 19 -37 13 -15 22 -31 19
-35 -2 -4 4 -16 15 -26 10 -10 22 -28 25 -40 4 -13 11 -23 15 -23 4 0 13 -16
21 -35 8 -19 17 -35 22 -35 4 0 8 -6 8 -13 0 -7 9 -23 21 -35 11 -12 18 -26
14 -31 -3 -5 -2 -11 3 -13 9 -4 67 -101 63 -107 -1 -2 1 -7 6 -10 18 -12 52
-68 46 -75 -3 -3 -1 -6 6 -6 8 0 11 -6 7 -16 -3 -8 -2 -12 3 -9 5 3 12 -3 16
-14 3 -10 15 -27 27 -37 12 -11 19 -14 15 -8 -8 14 225 13 235 -1 5 -7 8 -7 8
0 0 6 30 10 70 10 40 0 70 -4 70 -10 0 -5 5 -3 10 5 8 12 11 13 19 1 6 -10 10
-10 16 -1 6 9 10 9 16 -1 6 -10 9 -11 9 -1 0 6 5 12 11 12 6 0 8 -7 5 -17 -6
-16 -6 -16 12 0 20 19 37 23 27 7 -4 -6 2 -7 17 -1 15 5 31 5 41 0 12 -7 17
-6 17 3 0 9 3 9 10 -2 5 -8 10 -10 10 -4 0 8 11 9 35 4 24 -5 35 -4 35 4 0 6
5 4 10 -4 6 -9 10 -10 10 -3 0 8 9 9 30 3 17 -5 30 -5 30 0 0 5 13 5 30 0 19
-5 30 -5 30 1 0 6 8 5 20 -1 14 -8 20 -8 20 0 0 6 5 8 11 4 18 -11 229 -10
229 1 0 7 3 7 8 0 4 -6 93 -10 232 -9 228 1 254 -1 244 -17 -3 -5 0 -9 5 -9 6
0 11 -7 11 -15 0 -8 5 -15 11 -15 5 0 7 -4 4 -10 -3 -5 -1 -10 5 -10 6 0 8 -4
5 -10 -3 -5 -2 -10 3 -10 4 0 17 -17 28 -37 30 -56 48 -87 54 -93 3 -3 12 -18
20 -35 8 -16 18 -32 21 -35 4 -3 16 -23 28 -45 41 -77 74 -130 83 -136 5 -3 9
-10 9 -15 -1 -5 5 -16 13 -25 8 -9 17 -26 21 -38 3 -12 10 -21 15 -21 5 0 7
-7 4 -15 -4 -8 -1 -15 5 -15 6 0 11 -7 11 -17 0 -9 3 -13 6 -10 6 6 53 -74 57
-98 1 -5 9 -15 17 -21 9 -7 22 -28 30 -48 7 -20 18 -36 22 -36 5 0 7 -4 4 -9
-3 -5 1 -11 9 -15 8 -3 15 -15 15 -26 0 -11 5 -20 10 -20 6 0 10 -7 10 -15 0
-8 5 -15 11 -15 5 0 7 -4 4 -10 -3 -5 -2 -10 4 -10 6 0 13 -11 17 -25 3 -14
10 -25 15 -25 5 0 9 -7 9 -15 0 -8 5 -15 11 -15 5 0 8 -4 4 -9 -3 -6 3 -14 12
-20 10 -6 15 -11 10 -11 -4 0 4 -18 18 -40 14 -22 25 -44 25 -50 0 -5 3 -10 8
-10 4 0 13 -9 20 -21 11 -17 11 -20 0 -14 -7 3 -4 -2 7 -12 21 -19 60 -92 57
-106 -2 -5 2 -6 7 -3 9 6 21 -18 20 -37 0 -5 9 -17 20 -26 12 -10 21 -23 21
-28 0 -5 14 -30 30 -56 17 -26 30 -55 30 -63 0 -8 4 -13 9 -9 5 3 15 -11 22
-30 7 -19 17 -35 21 -35 4 0 8 -6 8 -13 0 -7 9 -23 20 -35 12 -12 18 -22 14
-22 -4 0 1 -9 11 -20 10 -11 14 -20 9 -20 -5 0 -4 -4 2 -8 14 -9 49 -74 46
-85 -1 -5 2 -6 7 -3 5 4 15 -10 21 -29 6 -19 16 -35 21 -35 5 0 9 -7 9 -15 0
-8 5 -15 10 -15 6 0 10 -9 10 -21 0 -11 5 -17 10 -14 6 3 10 -3 10 -14 0 -12
4 -21 10 -21 5 0 9 -3 8 -7 -1 -5 10 -27 25 -51 15 -24 33 -54 39 -68 6 -13
15 -24 20 -24 5 0 7 -4 4 -8 -3 -5 4 -19 15 -31 11 -12 21 -30 22 -41 1 -10 4
-17 8 -14 4 2 13 -12 20 -31 7 -19 16 -35 20 -35 4 0 12 -13 19 -30 7 -16 16
-30 19 -30 4 0 13 -16 21 -35 8 -19 18 -35 22 -35 5 0 6 -4 3 -10 -3 -5 -2
-10 2 -10 5 0 13 -9 18 -19 41 -81 60 -111 67 -111 5 0 7 -4 4 -9 -3 -5 5 -20
17 -33 13 -14 21 -30 19 -36 -2 -7 1 -12 7 -12 6 0 11 -7 11 -15 0 -8 3 -15 8
-15 4 0 18 -23 31 -50 14 -28 29 -50 34 -50 4 0 6 -4 3 -9 -3 -5 1 -12 10 -15
9 -3 14 -12 11 -20 -4 -9 0 -13 11 -12 9 2 18 7 18 12 4 25 17 54 25 54 5 0 5
7 2 17 -4 11 -3 14 5 9 7 -4 12 -1 12 8 0 9 8 24 18 34 10 10 16 24 14 30 -2
7 1 12 7 12 6 0 11 7 11 15 0 8 5 15 11 15 5 0 7 5 4 10 -3 6 -1 10 5 10 6 0
8 5 5 10 -3 6 -2 10 3 10 6 0 13 11 16 25 4 14 10 25 15 25 5 0 12 13 16 29 3
16 13 32 22 35 9 4 13 9 10 13 -4 3 2 18 13 33 11 16 20 33 20 39 0 6 5 11 10
11 6 0 10 9 10 20 0 11 4 20 9 20 5 0 13 10 17 23 4 12 9 24 13 27 10 8 41 63
52 93 6 15 14 27 19 27 8 0 23 38 21 53 -1 4 4 7 9 7 6 0 10 7 10 15 0 8 4 15
8 15 4 0 13 12 20 28 6 15 20 41 30 57 10 17 20 35 21 40 2 6 7 9 13 7 5 -1 7
2 4 7 -4 5 1 17 10 25 8 9 12 16 9 16 -8 0 35 72 48 81 5 3 8 9 8 13 -1 9 12
40 19 46 3 3 15 24 27 47 11 23 23 40 27 36 3 -3 6 1 6 11 0 9 11 33 25 53 13
20 22 40 19 45 -3 4 -1 8 5 8 10 0 51 78 51 98 0 7 -7 15 -16 19 -8 3 -13 11
-10 18 3 8 -2 16 -10 19 -9 3 -12 10 -9 16 3 5 2 10 -2 10 -5 0 -17 17 -28 38
-11 20 -24 40 -30 44 -5 4 -6 8 -2 8 4 0 -2 10 -13 22 -11 12 -19 27 -16 33 2
6 -5 17 -15 24 -11 6 -17 16 -14 21 3 6 2 10 -2 10 -8 0 -21 21 -45 73 -7 15
-16 27 -20 27 -4 0 -8 5 -8 11 0 5 -11 26 -25 46 -13 20 -22 40 -19 45 3 4 -2
8 -10 8 -9 0 -15 3 -14 8 2 7 -31 74 -41 82 -3 3 -14 22 -23 43 -10 20 -22 37
-28 37 -5 0 -9 3 -8 8 1 8 -13 45 -21 52 -10 8 -42 64 -48 83 -3 9 -9 17 -14
17 -5 0 -9 5 -9 10 0 6 -12 29 -27 53 -41 63 -73 120 -80 140 -3 9 -9 17 -13
17 -9 0 -25 40 -22 53 1 5 -1 6 -6 3 -4 -2 -17 15 -28 40 -10 24 -22 44 -26
44 -4 0 -17 21 -30 48 -13 26 -29 51 -35 55 -7 4 -13 17 -13 27 0 11 -4 20
-10 20 -5 0 -10 7 -10 15 0 8 -5 15 -11 15 -5 0 -7 5 -4 10 3 6 1 10 -4 10 -6
0 -11 6 -11 13 0 6 -9 23 -20 37 -35 45 -29 48 100 47 66 -1 120 2 120 6 0 5
5 5 12 1 11 -7 77 -9 103 -4 6 1 15 2 20 1 14 -2 739 0 903 2 80 1 134 -2 136
-8 3 -7 5 -7 5 0 1 6 59 9 160 8 141 -2 161 -1 179 16 12 10 19 21 15 24 -3 4
2 16 12 27 10 11 14 20 9 20 -5 0 -4 4 1 8 15 10 49 64 51 81 2 8 6 17 11 20
5 3 17 25 27 48 10 23 23 40 28 37 5 -3 7 -2 6 3 -3 11 33 86 46 95 6 4 7 8 3
8 -5 0 -1 7 7 16 9 8 14 20 11 25 -4 5 -2 9 3 9 5 0 17 18 27 40 10 22 22 40
27 40 4 0 8 6 8 13 0 7 13 34 29 59 16 25 27 49 24 52 -4 3 -1 6 6 6 7 0 9 5
6 10 -3 6 -1 10 4 10 6 0 11 7 11 15 0 8 5 15 11 15 5 0 7 5 4 10 -3 6 -1 10
4 10 6 0 11 7 11 15 0 8 5 15 11 15 5 0 8 4 4 9 -3 5 2 17 11 25 8 9 12 16 8
16 -4 0 1 9 11 20 10 11 15 20 11 20 -4 0 0 7 8 16 9 8 16 22 16 30 0 8 5 14
11 14 5 0 7 5 4 10 -3 6 -2 10 4 10 5 0 13 10 17 22 4 13 14 29 23 36 9 8 10
11 4 7 -7 -3 -1 14 15 38 15 25 30 43 34 40 4 -2 5 2 2 10 -3 8 2 22 11 30 9
9 16 20 15 24 0 4 8 17 17 28 9 11 16 21 14 23 -5 5 24 62 31 62 5 0 8 9 8 21
0 11 4 18 8 15 5 -3 14 11 21 30 7 18 17 34 22 34 5 0 8 3 7 8 -3 10 49 109
62 117 6 4 8 10 6 14 -3 4 4 17 14 29 11 12 20 28 20 36 0 8 7 19 16 24 9 5
16 12 16 15 0 19 12 47 20 47 5 0 7 4 4 8 -3 5 4 19 15 30 11 12 17 22 13 22
-3 0 -1 7 6 15 7 8 10 15 6 15 -3 0 3 9 14 20 11 11 20 27 20 35 0 8 5 15 12
15 6 0 8 3 5 7 -4 3 -3 11 2 17 5 6 20 31 34 56 l25 46 -22 -1 c-12 -1 -27 -4
-33 -8 -7 -4 -14 -3 -17 2 -7 10 -25 9 -42 -2 -6 -3 -14 -3 -18 0 -11 12 -66
10 -66 -2 0 -7 -3 -7 -8 0 -4 6 -16 11 -27 11 -11 0 -23 -5 -27 -11 -5 -6 -8
-5 -8 3 0 9 -5 10 -19 3 -10 -6 -21 -7 -25 -4 -11 11 -36 12 -36 1 0 -7 -5 -6
-14 1 -8 7 -17 8 -20 3 -5 -9 -59 -8 -75 3 -6 3 -11 1 -11 -6 0 -8 -4 -9 -13
0 -10 8 -17 7 -25 -1 -9 -9 -12 -9 -12 1 0 11 -3 11 -15 1 -12 -10 -15 -10
-15 0 0 10 -3 10 -15 0 -12 -10 -15 -10 -15 0 0 9 -3 10 -13 1 -10 -8 -17 -7
-25 1 -9 9 -12 9 -12 -1 0 -11 -3 -11 -15 -1 -12 10 -15 10 -15 0 0 -10 -3
-10 -15 0 -12 10 -15 10 -15 0 0 -10 -3 -10 -14 -1 -10 9 -16 9 -21 1 -5 -8
-11 -8 -21 1 -11 9 -14 9 -14 0 0 -8 -5 -9 -18 -2 -11 6 -24 6 -32 1 -9 -5
-19 -5 -27 2 -9 7 -13 7 -13 -1 0 -8 -5 -9 -19 -2 -10 6 -21 8 -24 5 -11 -11
-42 -11 -49 0 -6 8 -8 8 -8 0 0 -7 -12 -10 -27 -7 -38 6 -44 5 -70 -1 -14 -3
-23 0 -23 7 0 8 -3 8 -8 2 -8 -12 -121 -14 -138 -3 -6 4 -14 4 -18 0z"/>
<path d="M7805 15191 c-3 -6 -23 -9 -45 -7 -24 2 -40 -1 -40 -8 0 -7 -3 -7 -8
-1 -9 13 -64 17 -57 4 4 -5 -4 -5 -19 1 -17 6 -27 6 -32 -1 -4 -8 -9 -8 -14 0
-5 8 -14 9 -33 2 -15 -6 -27 -7 -27 -2 0 11 -44 8 -52 -4 -5 -6 -8 -5 -8 4 0
9 -4 10 -12 3 -7 -5 -22 -6 -33 -2 -11 4 -28 3 -37 -2 -13 -6 -18 -5 -18 4 0
8 -3 9 -8 3 -4 -5 -16 -10 -27 -10 -11 0 -23 5 -27 10 -5 6 -8 4 -8 -5 0 -13
-1 -13 -10 0 -8 12 -10 12 -10 1 0 -10 -3 -11 -13 -2 -8 6 -17 8 -21 4 -10
-10 -76 -10 -76 0 0 6 -5 5 -12 0 -7 -5 -29 -9 -49 -7 -34 1 -35 1 -25 -22 6
-13 15 -24 19 -24 5 0 6 -4 3 -9 -3 -5 1 -14 9 -21 8 -7 15 -18 15 -25 0 -7 7
-18 15 -25 8 -7 13 -16 10 -20 -3 -4 2 -11 11 -14 8 -3 12 -10 9 -16 -3 -5 -1
-10 4 -10 6 0 11 -5 11 -11 0 -6 7 -17 15 -26 8 -8 13 -19 9 -24 -3 -5 2 -12
10 -15 9 -3 13 -10 10 -15 -3 -5 0 -9 5 -9 6 0 11 -5 11 -11 0 -5 11 -26 25
-46 13 -20 22 -40 19 -45 -3 -4 -1 -8 5 -8 10 0 47 -62 51 -85 1 -5 8 -14 16
-18 8 -5 12 -12 9 -18 -4 -5 -1 -9 4 -9 6 0 11 -7 11 -15 0 -8 5 -15 10 -15 6
0 10 -6 10 -14 0 -7 7 -19 15 -26 9 -7 14 -15 11 -17 -4 -4 31 -62 53 -89 6
-7 7 -15 4 -18 -4 -3 -1 -6 5 -6 7 0 12 -7 12 -15 0 -8 5 -15 11 -15 5 0 7 -5
4 -10 -3 -6 1 -13 9 -16 9 -3 14 -10 11 -14 -3 -5 0 -14 7 -22 7 -7 24 -35 38
-61 13 -26 28 -47 31 -47 7 0 22 -39 20 -52 -1 -5 3 -8 9 -8 5 0 17 -17 27
-37 9 -21 23 -44 30 -51 7 -7 20 -30 30 -50 9 -20 19 -39 22 -42 4 -3 12 -15
19 -27 6 -13 18 -33 25 -45 6 -13 17 -26 22 -30 6 -4 7 -8 3 -8 -7 0 3 -17 55
-93 6 -10 11 -23 10 -28 -2 -5 2 -9 7 -9 6 0 10 -7 10 -15 0 -9 6 -18 14 -21
8 -3 13 -11 10 -19 -3 -7 2 -15 11 -19 9 -3 13 -10 10 -16 -3 -5 -1 -10 4 -10
6 0 11 -7 11 -15 0 -8 5 -15 11 -15 5 0 7 -4 4 -10 -3 -5 -1 -10 5 -10 6 0 8
-4 5 -10 -3 -5 -1 -10 4 -10 6 0 11 -7 11 -15 0 -8 5 -15 10 -15 6 0 10 -7 10
-15 0 -8 5 -15 11 -15 5 0 8 -4 5 -9 -3 -5 1 -14 9 -21 8 -7 15 -19 15 -26 0
-8 5 -14 11 -14 5 0 7 -4 4 -10 -3 -5 -2 -10 2 -10 5 0 20 -22 34 -50 13 -27
28 -50 32 -50 5 0 5 -4 2 -10 -3 -5 -2 -10 3 -10 5 0 13 -10 19 -22 8 -19 4
-34 -20 -78 -17 -30 -35 -58 -40 -61 -5 -4 -7 -11 -3 -17 3 -6 2 -12 -2 -14
-4 -1 -35 -57 -68 -123 -32 -66 -62 -121 -66 -123 -5 -2 -8 -12 -8 -22 0 -10
-7 -21 -16 -24 -8 -3 -12 -10 -9 -16 3 -6 -2 -22 -12 -38 -11 -15 -39 -67 -64
-117 -24 -49 -48 -93 -54 -97 -5 -4 -10 -13 -10 -20 -2 -25 -25 -68 -36 -68
-7 0 -10 -3 -6 -6 7 -7 -61 -145 -77 -156 -6 -4 -8 -8 -3 -8 4 0 0 -11 -9 -25
-9 -14 -13 -25 -9 -25 3 0 -1 -7 -9 -16 -9 -8 -14 -20 -11 -25 4 -5 3 -9 -2
-9 -4 0 -17 -19 -28 -43 -11 -23 -26 -48 -33 -56 -7 -7 -11 -20 -8 -27 3 -8 2
-14 -3 -14 -4 0 -16 -18 -26 -40 -10 -22 -23 -40 -28 -40 -6 0 -7 -3 -4 -6 3
-4 1 -16 -5 -28 -7 -11 -11 -24 -10 -28 1 -5 -3 -8 -8 -8 -6 0 -10 -7 -10 -15
0 -8 -5 -15 -11 -15 -5 0 -7 -5 -3 -12 4 -7 3 -8 -4 -4 -7 4 -12 16 -12 27 0
10 -4 19 -10 19 -5 0 -10 7 -10 16 0 8 -4 12 -10 9 -5 -3 -10 0 -10 7 0 20
-24 68 -33 68 -5 0 -5 5 -2 10 3 6 2 10 -3 10 -5 0 -15 14 -22 30 -7 17 -17
30 -22 30 -5 0 -6 5 -3 10 3 6 1 10 -4 10 -6 0 -11 7 -11 15 0 8 -5 15 -12 15
-6 0 -8 3 -5 6 4 4 -2 19 -13 34 -11 16 -20 33 -20 39 0 7 -7 14 -15 17 -8 4
-12 10 -9 15 3 5 1 9 -4 9 -6 0 -13 11 -16 25 -4 14 -11 25 -17 25 -6 0 -7 5
-4 10 3 6 1 10 -4 10 -6 0 -11 6 -11 14 0 8 -6 21 -13 28 -7 7 -20 28 -28 46
-7 17 -17 32 -21 32 -5 0 -8 7 -8 15 0 8 -4 15 -8 15 -5 0 -14 16 -22 35 -8
19 -17 35 -22 35 -4 0 -8 7 -8 15 0 9 -6 18 -13 21 -8 3 -14 10 -14 17 0 7
-12 31 -26 54 -15 24 -27 47 -27 53 0 5 -4 10 -10 10 -5 0 -10 5 -10 11 0 6
-13 30 -30 54 -16 24 -30 49 -30 55 0 6 -9 20 -20 32 -10 12 -17 25 -14 30 3
4 0 8 -5 8 -6 0 -18 17 -26 37 -9 21 -19 40 -23 43 -4 3 -18 25 -31 50 -14 25
-27 47 -30 50 -4 3 -15 22 -26 43 -11 20 -23 37 -27 37 -5 0 -8 3 -7 8 2 13
-13 52 -21 52 -4 0 -17 20 -30 45 -13 25 -27 45 -31 45 -5 0 -6 7 -3 15 4 8 2
15 -4 15 -5 0 -15 13 -22 30 -7 16 -17 27 -23 23 -5 -3 -7 -1 -3 5 3 6 2 13
-4 17 -6 4 -8 11 -5 16 4 5 -1 12 -10 15 -9 4 -14 13 -11 20 3 8 2 14 -3 14
-4 0 -16 16 -27 35 -10 19 -22 35 -27 35 -4 0 -6 4 -2 9 3 5 -2 16 -10 24 -8
9 -15 23 -15 32 0 9 -4 13 -10 10 -5 -3 -10 -1 -10 5 0 7 -9 24 -20 40 -11 15
-17 30 -13 34 3 3 0 6 -7 6 -7 0 -11 3 -7 6 3 3 -3 15 -14 27 -10 11 -19 29
-19 39 0 11 -4 17 -8 14 -4 -2 -14 10 -22 27 -7 18 -20 38 -27 45 -7 8 -11 18
-8 23 4 5 2 9 -3 9 -5 0 -15 14 -22 30 -7 17 -16 30 -21 30 -5 0 -9 5 -9 10 0
6 -11 28 -25 50 -14 22 -22 40 -18 40 5 0 0 5 -9 11 -10 5 -18 19 -18 29 0 11
-4 20 -10 20 -5 0 -17 15 -25 33 -8 17 -26 50 -40 72 -14 22 -28 48 -32 58 -3
9 -9 17 -14 17 -5 0 -9 7 -9 15 0 9 -9 25 -20 37 -11 12 -20 28 -20 35 0 7 -5
13 -11 13 -5 0 -7 5 -4 10 3 6 1 10 -5 10 -6 0 -9 4 -6 9 3 5 -1 12 -10 15 -8
3 -12 10 -9 16 3 5 1 10 -4 10 -6 0 -11 6 -11 14 0 7 -7 19 -15 26 -8 7 -12
16 -9 21 3 5 0 9 -5 9 -6 0 -11 7 -11 15 0 8 -5 15 -11 15 -6 0 -9 5 -7 12 2
6 -6 22 -19 36 -12 13 -20 28 -17 33 3 5 1 9 -3 9 -5 0 -17 17 -28 38 -11 20
-22 39 -25 42 -3 3 -12 14 -20 24 -13 18 -13 19 0 12 9 -4 8 -2 -2 7 -10 8
-15 17 -11 20 3 4 1 7 -5 7 -7 0 -12 7 -12 15 0 8 -5 15 -11 15 -5 0 -8 4 -5
9 3 5 -1 14 -9 21 -8 7 -15 17 -15 23 0 6 -10 22 -22 35 -13 14 -16 22 -8 18
13 -7 13 -6 0 6 -8 7 -22 26 -30 42 -29 57 -35 66 -43 66 -4 0 -5 5 -2 10 3 6
3 10 -2 10 -4 0 -14 14 -21 30 -9 19 -21 30 -33 30 -14 0 -18 4 -13 13 6 9 5
9 -7 0 -8 -6 -31 -10 -52 -9 -21 2 -40 -1 -43 -6 -3 -4 -11 -5 -17 -1 -16 10
-167 10 -167 0 0 -4 -5 -5 -11 -1 -18 11 -209 10 -209 -1 0 -5 -5 -3 -10 5 -8
12 -10 12 -10 1 0 -11 -3 -11 -15 -1 -12 10 -15 10 -15 -1 0 -9 -3 -10 -8 -4
-7 10 -82 15 -82 5 0 -6 -109 -4 -116 2 -2 3 -22 2 -44 -2 -25 -5 -40 -4 -40
3 0 5 -6 4 -14 -2 -9 -8 -16 -8 -20 -2 -5 7 -15 7 -31 1 -18 -7 -25 -6 -25 3
0 7 -3 8 -8 2 -4 -5 -38 -10 -77 -10 -38 0 -73 5 -77 10 -5 7 -8 7 -8 0 0 -6
-37 -10 -90 -11 -52 0 -90 4 -90 9 0 6 -8 3 -17 -5 -16 -12 -37 -16 -45 -8 -9
8 -114 4 -120 -5 -5 -6 -8 -5 -8 4 0 11 -3 11 -15 1 -10 -9 -15 -9 -15 -1 0
13 -22 10 -32 -4 -5 -6 -8 -6 -8 2 0 12 -17 12 -37 0 -6 -4 -14 -3 -17 1 -6
10 -48 8 -65 -3 -6 -3 -11 -1 -11 5 0 7 -6 8 -19 1 -10 -6 -21 -8 -23 -5 -11
10 -48 12 -48 2 0 -7 -5 -6 -15 2 -12 10 -16 9 -22 -6 -4 -10 -2 -19 5 -22 7
-2 12 -10 12 -18 0 -9 5 -12 10 -9 6 4 9 3 8 -2 -4 -12 23 -73 31 -69 4 3 8
-4 8 -15 1 -10 9 -26 17 -34 8 -8 18 -24 21 -35 3 -11 11 -20 16 -20 6 0 8 -4
4 -9 -3 -5 -1 -12 5 -16 5 -3 19 -26 30 -51 11 -24 26 -44 32 -44 6 0 9 -3 5
-6 -6 -6 50 -104 67 -116 6 -4 7 -8 2 -8 -5 0 -2 -8 7 -18 10 -10 14 -22 10
-25 -3 -4 0 -7 7 -7 7 0 11 -3 7 -6 -3 -4 -1 -12 6 -20 22 -25 32 -40 35 -54
2 -8 7 -17 10 -20 4 -3 18 -25 31 -50 13 -25 30 -52 38 -61 7 -9 10 -19 6 -22
-3 -4 -1 -7 6 -7 7 0 9 -4 6 -10 -3 -5 -2 -10 3 -10 5 0 17 -15 25 -33 9 -18
27 -49 41 -70 14 -21 26 -44 26 -52 0 -8 5 -15 10 -15 6 0 10 -7 10 -15 0 -8
4 -15 9 -15 8 0 24 -37 22 -52 -1 -5 3 -8 8 -8 5 0 14 -13 21 -30 7 -16 16
-30 21 -30 5 0 9 -9 9 -20 0 -11 5 -20 10 -20 6 0 17 -18 26 -40 9 -22 20 -40
25 -40 5 0 9 -7 9 -15 0 -8 5 -15 11 -15 5 0 8 -4 5 -9 -3 -5 1 -14 9 -21 8
-7 15 -20 15 -30 0 -10 7 -21 16 -24 8 -3 13 -10 9 -15 -3 -5 -1 -12 4 -16 6
-3 20 -26 32 -50 12 -25 27 -45 31 -45 5 0 6 -4 3 -10 -3 -5 -1 -10 5 -10 6 0
8 -4 5 -10 -3 -5 -1 -10 4 -10 6 0 11 -5 11 -11 0 -6 14 -30 30 -55 17 -24 28
-44 25 -44 -3 0 5 -15 17 -32 13 -18 31 -46 38 -63 8 -16 19 -33 25 -37 5 -4
6 -8 1 -8 -4 0 2 -9 15 -21 13 -11 18 -18 12 -14 -9 4 -11 1 -7 -9 3 -9 10
-16 15 -16 5 0 9 -6 9 -14 0 -7 7 -19 15 -26 8 -7 12 -16 9 -21 -3 -5 -1 -9 4
-9 5 0 15 -13 22 -30 7 -16 17 -30 22 -30 6 0 7 -7 4 -15 -3 -9 0 -18 7 -21 8
-3 20 -20 27 -39 8 -19 17 -35 22 -35 4 0 8 -7 8 -15 0 -8 5 -15 11 -15 5 0 7
-4 4 -10 -3 -5 -2 -10 3 -10 5 0 12 -8 15 -17 8 -25 50 -97 62 -105 6 -4 6 -8
2 -8 -4 0 1 -10 13 -22 11 -12 19 -27 17 -32 -2 -6 5 -19 15 -30 10 -11 18
-26 18 -33 0 -7 4 -13 9 -13 5 0 14 -13 21 -30 7 -16 17 -30 22 -30 5 0 7 -4
4 -9 -3 -5 3 -20 14 -33 11 -14 16 -28 13 -32 -3 -3 -1 -6 5 -6 10 0 28 -38
24 -52 -1 -5 5 -8 14 -8 8 0 12 -4 9 -10 -3 -5 -1 -10 5 -10 6 0 8 -4 5 -10
-3 -5 -1 -10 5 -10 6 0 8 -4 5 -10 -3 -5 -2 -10 2 -10 5 0 17 -18 27 -40 10
-22 21 -40 26 -40 8 0 23 -38 21 -52 -1 -5 2 -8 7 -8 4 0 16 -17 27 -37 11
-21 22 -40 25 -43 3 -3 14 -22 25 -42 11 -21 23 -38 28 -38 4 0 6 -4 2 -10 -3
-5 2 -18 12 -28 10 -10 19 -25 21 -32 2 -8 12 -26 23 -41 10 -15 19 -32 19
-38 0 -6 4 -11 8 -11 5 0 14 -16 22 -35 8 -19 17 -35 21 -35 4 0 10 -11 13
-25 4 -14 11 -25 17 -25 6 0 7 -4 4 -10 -3 -5 -1 -10 4 -10 6 0 11 -6 11 -14
0 -7 7 -19 15 -26 8 -7 12 -16 9 -21 -3 -5 0 -9 5 -9 6 0 11 -6 11 -13 0 -7 9
-23 20 -35 11 -12 20 -30 20 -41 0 -10 7 -21 15 -25 8 -3 15 -12 15 -21 0 -8
5 -15 11 -15 5 0 8 -4 5 -8 -3 -5 4 -18 14 -30 11 -12 20 -26 20 -32 0 -6 7
-18 15 -27 8 -8 13 -19 10 -24 -4 -5 -2 -9 3 -9 5 0 15 -13 22 -30 7 -16 17
-30 22 -30 5 0 6 -5 3 -10 -3 -6 1 -13 9 -16 9 -3 14 -10 11 -14 -3 -5 2 -16
11 -24 8 -9 13 -16 9 -16 -4 0 1 -7 9 -16 9 -8 16 -22 16 -30 0 -8 5 -14 10
-14 6 0 10 -7 10 -15 0 -8 5 -15 11 -15 5 0 8 -4 4 -9 -3 -6 3 -14 12 -20 10
-6 14 -11 9 -11 -5 0 -3 -7 4 -15 7 -8 9 -15 4 -15 -5 0 -4 -4 2 -8 14 -9 94
-145 94 -159 0 -6 7 -14 16 -17 8 -3 13 -10 10 -15 -4 -5 -3 -11 1 -13 10 -4
42 -57 50 -80 3 -10 10 -18 15 -18 5 0 7 -4 4 -9 -3 -5 1 -14 9 -21 8 -7 15
-19 15 -27 0 -7 6 -16 14 -19 8 -3 12 -12 9 -20 -3 -8 0 -14 6 -14 10 0 32
-40 36 -65 0 -5 6 -9 13 -8 6 2 9 -4 6 -12 -4 -8 1 -17 10 -21 9 -3 16 -14 16
-24 0 -10 7 -23 15 -30 8 -7 12 -16 9 -21 -3 -5 0 -9 5 -9 6 0 11 -5 11 -11 0
-6 9 -22 20 -36 11 -14 18 -29 15 -33 -3 -4 2 -11 11 -14 8 -3 12 -10 9 -16
-3 -5 -2 -10 3 -10 5 0 17 -15 26 -32 8 -18 24 -46 35 -62 11 -17 18 -33 15
-38 -3 -4 -1 -8 4 -8 5 0 15 -12 23 -27 7 -16 21 -39 31 -52 10 -13 16 -27 13
-31 -3 -4 2 -10 10 -14 8 -3 15 -12 15 -21 0 -8 5 -15 11 -15 5 0 8 -4 5 -9
-3 -4 4 -19 15 -32 11 -13 32 -49 46 -81 15 -31 30 -55 35 -52 4 3 8 -3 8 -14
0 -10 9 -28 20 -40 12 -12 18 -22 15 -22 -7 0 57 -103 69 -112 6 -4 7 -10 4
-14 -4 -3 2 -15 12 -27 11 -11 17 -23 15 -27 -3 -5 2 -11 11 -14 9 -4 14 -13
10 -21 -3 -9 0 -15 10 -15 8 0 13 -4 9 -9 -3 -5 0 -15 7 -23 7 -7 20 -26 28
-43 8 -16 21 -36 28 -43 7 -8 10 -18 7 -23 -4 -5 -2 -9 3 -9 5 0 15 -13 22
-30 7 -16 16 -28 19 -25 4 2 8 -2 9 -10 1 -8 3 -22 4 -30 1 -8 6 -15 12 -15 6
0 20 -20 30 -43 10 -23 30 -57 43 -75 14 -18 26 -39 27 -45 1 -7 16 -34 34
-62 17 -27 32 -56 32 -62 0 -7 5 -13 12 -13 6 0 9 -3 5 -6 -3 -3 3 -14 14 -25
11 -11 17 -24 14 -29 -4 -6 -2 -10 3 -10 5 0 13 -8 16 -17 9 -24 37 -77 45
-83 3 -3 12 -15 19 -27 6 -13 18 -33 25 -45 6 -13 17 -26 22 -30 6 -4 6 -8 1
-8 -5 0 -1 -9 8 -19 10 -11 15 -25 11 -31 -3 -6 -1 -9 6 -8 7 2 13 -3 14 -10
0 -7 6 -16 13 -21 8 -5 13 -11 13 -15 -2 -10 31 -70 43 -78 6 -5 7 -8 1 -8 -7
0 -7 -3 0 -8 6 -4 21 -27 34 -52 14 -25 27 -47 30 -50 3 -3 14 -21 24 -40 39
-73 52 -95 62 -102 6 -4 6 -8 2 -8 -5 0 -1 -7 7 -16 9 -8 16 -22 16 -30 0 -8
5 -14 10 -14 6 0 10 -7 10 -15 0 -8 10 -24 23 -36 12 -12 15 -18 7 -14 -10 6
-8 1 4 -13 11 -12 15 -22 10 -22 -5 0 -1 -5 9 -11 9 -6 15 -14 12 -20 -4 -5
-1 -9 4 -9 6 0 11 -7 11 -15 0 -8 4 -15 9 -15 5 0 11 -10 15 -22 7 -30 7 -30
28 -52 9 -10 15 -22 13 -26 -2 -3 4 -12 15 -20 10 -7 16 -19 14 -25 -3 -7 2
-15 11 -19 10 -3 15 -12 11 -21 -3 -9 0 -15 10 -15 8 0 13 -3 11 -7 -7 -11 29
-74 37 -66 3 3 6 -3 6 -14 0 -12 4 -23 9 -25 5 -1 11 -9 13 -17 2 -8 9 -22 16
-30 7 -9 12 -20 11 -25 0 -5 3 -12 8 -15 18 -12 73 -118 65 -126 -4 -5 -1 -5
6 -1 7 4 12 1 12 -8 0 -9 5 -16 10 -16 6 0 10 -6 10 -14 0 -8 16 -38 35 -68
19 -29 38 -61 41 -70 3 -10 10 -18 15 -18 6 0 7 -5 4 -10 -3 -6 1 -13 9 -16 9
-3 13 -10 11 -15 -3 -4 3 -17 13 -27 10 -10 16 -24 14 -30 -2 -7 1 -12 7 -12
6 0 11 -7 11 -15 0 -8 3 -15 8 -15 4 0 15 -17 25 -37 24 -51 49 -94 65 -111 7
-7 10 -17 7 -22 -3 -4 2 -11 11 -14 8 -3 12 -10 9 -16 -3 -5 -1 -10 4 -10 6 0
11 -6 11 -14 0 -7 7 -19 15 -26 8 -7 13 -16 10 -20 -3 -5 -2 -10 2 -12 10 -4
42 -57 50 -80 3 -10 9 -18 14 -18 5 0 9 -9 9 -19 0 -11 8 -26 18 -33 9 -7 18
-20 20 -28 2 -8 10 -22 18 -31 8 -9 11 -19 7 -22 -3 -4 -1 -7 5 -7 7 0 12 -6
12 -13 0 -7 8 -22 18 -33 9 -11 18 -26 20 -34 2 -8 7 -17 11 -20 3 -3 12 -17
18 -32 7 -16 18 -28 24 -28 6 0 9 -7 5 -15 -3 -8 0 -15 6 -15 6 0 9 -3 5 -6
-3 -3 3 -15 13 -27 11 -11 17 -24 14 -29 -3 -4 -1 -8 4 -8 5 0 15 -13 22 -30
7 -16 21 -39 31 -51 10 -12 16 -26 13 -30 -3 -5 -1 -9 4 -9 5 0 16 -15 23 -32
7 -18 21 -42 31 -52 9 -10 15 -23 12 -28 -3 -4 0 -8 6 -8 6 0 8 -4 5 -10 -3
-6 -1 -10 5 -10 12 0 34 -48 31 -68 -1 -7 4 -11 10 -10 7 2 15 -6 17 -17 2
-11 10 -24 18 -28 8 -4 14 -17 14 -27 0 -11 3 -20 8 -20 7 0 16 -15 46 -77 8
-18 20 -33 27 -33 7 0 9 -3 6 -6 -4 -4 3 -20 14 -35 11 -16 17 -29 12 -29 -4
0 -3 -4 2 -8 13 -9 34 -42 41 -64 4 -10 10 -18 15 -18 5 0 9 -9 9 -19 0 -10 7
-22 16 -25 8 -3 12 -10 9 -16 -3 -5 -1 -10 4 -10 6 0 11 -7 11 -15 0 -8 9 -24
19 -34 11 -11 16 -22 13 -26 -4 -4 0 -12 8 -18 8 -7 23 -28 33 -47 39 -77 50
-95 59 -98 4 -2 6 -8 2 -13 -3 -5 2 -12 10 -15 9 -3 14 -9 11 -14 -2 -4 7 -22
20 -40 14 -19 25 -40 25 -47 0 -7 5 -13 10 -13 6 0 10 -7 10 -15 0 -8 5 -15
11 -15 5 0 7 -4 4 -10 -3 -6 -1 -10 5 -10 6 0 8 -4 5 -10 -3 -5 -2 -10 4 -10
9 0 21 -26 20 -43 0 -5 9 -17 20 -26 12 -10 21 -23 21 -29 0 -10 38 -73 60
-99 5 -7 10 -19 10 -28 0 -8 3 -15 8 -15 9 0 38 -61 34 -73 -1 -5 1 -6 6 -3 4
2 19 -16 32 -42 14 -26 30 -53 37 -60 7 -8 11 -18 8 -23 -4 -5 -1 -9 4 -9 6 0
11 -5 11 -11 0 -6 7 -17 15 -26 8 -8 13 -19 10 -24 -4 -5 -2 -9 3 -9 5 0 15
-13 22 -30 7 -16 16 -30 20 -30 8 0 23 -38 21 -52 -1 -5 4 -8 10 -8 5 0 7 -4
4 -10 -3 -5 1 -10 9 -10 9 0 16 -3 15 -7 -2 -13 13 -53 20 -53 3 0 12 -15 20
-32 8 -18 22 -42 31 -53 9 -11 23 -35 31 -52 8 -18 18 -33 22 -33 5 0 6 -4 2
-9 -3 -5 0 -13 5 -16 6 -4 16 -17 21 -28 5 -12 18 -35 29 -52 11 -16 27 -47
37 -68 10 -20 21 -37 25 -37 5 0 8 -5 8 -11 0 -6 14 -31 32 -57 18 -26 31 -49
29 -51 -2 -1 1 -10 7 -20 24 -34 113 -186 115 -196 1 -5 10 -18 20 -29 9 -11
17 -26 17 -33 0 -7 5 -13 10 -13 6 0 10 -9 10 -21 0 -11 4 -18 9 -15 5 4 12
-7 16 -24 4 -16 11 -30 17 -30 6 0 9 -3 5 -6 -3 -4 1 -13 9 -21 8 -8 11 -19 8
-25 -4 -7 -2 -8 4 -4 7 4 12 1 12 -8 0 -9 5 -16 12 -16 6 0 9 -3 5 -6 -3 -4 1
-13 9 -21 8 -8 12 -19 9 -24 -4 -5 -1 -9 6 -9 7 0 10 -3 6 -6 -3 -3 4 -17 16
-31 12 -13 22 -28 23 -31 2 -17 19 -49 36 -66 10 -11 18 -28 18 -38 0 -11 4
-16 10 -13 6 3 10 -1 10 -10 0 -9 7 -23 15 -31 8 -9 15 -24 15 -34 0 -13 5
-17 15 -14 8 4 13 10 10 14 -3 4 2 11 11 14 8 3 12 10 9 16 -3 6 0 13 9 16 9
3 12 12 9 21 -4 11 -2 14 5 9 8 -5 12 0 12 14 0 14 4 19 12 14 8 -5 9 -2 5 10
-4 10 -1 19 8 22 8 4 13 10 10 14 -3 5 3 13 12 19 10 6 15 11 11 11 -11 0 32
80 43 80 5 0 9 3 8 8 -2 14 13 52 21 52 8 0 23 38 21 53 -1 4 3 7 8 7 5 0 17
18 27 40 10 21 22 36 27 33 6 -4 8 0 4 9 -3 9 3 25 13 35 9 11 21 29 24 41 4
12 12 22 17 22 6 0 7 5 4 10 -3 6 -1 10 5 10 7 0 10 6 7 14 -3 8 1 17 9 20 9
3 12 10 9 16 -3 5 -1 10 4 10 6 0 11 7 11 15 0 8 5 15 10 15 6 0 9 6 8 12 -2
7 2 12 9 11 7 -2 10 6 8 17 -2 13 2 20 11 20 8 0 13 4 10 9 -8 13 4 42 15 35
8 -5 13 9 10 29 0 4 3 7 9 7 5 0 10 6 10 13 0 7 11 29 25 50 14 20 23 37 20
37 -4 0 1 7 9 16 9 8 16 21 16 28 0 7 8 21 18 32 9 10 28 43 42 71 14 29 28
53 31 53 4 0 10 11 13 25 4 14 10 25 15 25 5 0 12 13 16 29 3 16 13 32 21 35
9 3 12 10 9 16 -3 5 -1 10 4 10 6 0 11 6 11 14 0 8 7 22 16 30 8 9 12 16 7 16
-4 0 -3 4 2 8 9 6 20 25 69 117 6 11 16 23 21 27 6 4 6 8 2 8 -5 0 -1 7 7 16
9 8 16 22 16 30 0 8 5 14 10 14 6 0 10 6 10 14 0 8 6 21 13 28 7 7 13 15 13
18 0 3 8 17 18 33 17 25 17 29 4 45 -9 9 -19 27 -22 40 -4 12 -12 22 -17 22
-5 0 -9 7 -9 15 0 8 -3 15 -8 15 -9 0 -47 82 -43 95 1 5 -1 7 -5 3 -7 -7 -61
75 -62 95 -1 4 -12 22 -27 38 -14 17 -23 35 -19 40 3 5 1 9 -4 9 -5 0 -15 14
-22 30 -7 17 -17 30 -22 30 -5 0 -7 4 -3 9 3 5 1 12 -5 16 -5 3 -17 21 -26 40
-9 19 -21 35 -26 35 -5 0 -6 5 -3 10 3 6 1 10 -5 10 -6 0 -9 4 -6 9 3 5 -1 14
-9 21 -8 7 -12 16 -9 21 3 5 1 9 -3 9 -5 0 -17 14 -26 30 -10 16 -15 30 -12
30 3 0 -3 9 -14 21 -11 12 -25 34 -31 50 -7 16 -17 29 -22 29 -5 0 -7 4 -3 9
3 5 -1 16 -9 24 -8 8 -12 17 -9 21 4 3 2 6 -4 6 -6 0 -16 14 -23 30 -7 17 -17
30 -22 30 -5 0 -7 4 -4 8 3 5 -3 18 -12 28 -10 10 -19 23 -19 27 -1 4 -11 23
-22 43 -11 19 -20 35 -18 37 1 1 -8 16 -20 33 -12 17 -20 34 -16 38 3 3 -1 6
-9 6 -14 0 -32 33 -29 53 1 4 -3 7 -7 7 -5 0 -17 18 -27 40 -10 22 -22 40 -27
40 -5 0 -6 5 -3 10 3 6 1 10 -5 10 -6 0 -8 5 -5 10 3 6 3 10 -2 10 -4 0 -19
20 -32 45 -13 25 -28 45 -32 45 -5 0 -6 7 -3 15 4 8 1 15 -6 15 -6 0 -8 5 -5
10 3 6 1 10 -5 10 -11 0 -35 48 -31 63 1 5 -3 6 -8 3 -8 -5 -26 28 -23 44 0 3
-6 9 -14 13 -8 4 -14 14 -14 21 0 8 -7 19 -15 26 -8 7 -12 16 -9 21 3 5 2 9
-3 9 -4 0 -24 29 -42 65 -19 36 -39 65 -44 65 -4 0 -6 4 -3 9 3 5 -1 14 -9 21
-8 7 -15 18 -15 25 0 6 -9 22 -20 35 -11 12 -17 26 -15 30 3 4 -2 11 -11 14
-8 3 -12 10 -9 16 3 6 -1 13 -9 16 -9 3 -13 10 -10 15 3 5 0 9 -6 9 -6 0 -8 4
-5 10 3 6 1 10 -4 10 -6 0 -11 6 -11 13 0 7 -9 23 -20 35 -11 12 -20 27 -20
35 0 7 -9 23 -19 34 -11 12 -17 24 -14 27 4 3 0 6 -7 6 -7 0 -10 3 -7 7 4 3 1
13 -5 21 -16 19 -36 53 -44 75 -3 9 -9 17 -13 17 -4 0 -13 16 -21 35 -8 19
-17 35 -22 35 -4 0 -8 9 -8 21 0 11 -4 17 -10 14 -5 -3 -10 3 -10 14 0 12 -4
21 -10 21 -5 0 -10 7 -10 15 0 8 -3 15 -8 15 -9 0 -38 61 -34 73 1 5 -2 6 -8
2 -5 -3 -10 0 -10 8 0 8 -7 20 -15 27 -8 7 -12 16 -9 21 3 5 0 9 -5 9 -6 0
-11 9 -11 21 0 11 -4 17 -10 14 -5 -3 -10 0 -10 7 0 7 -14 33 -30 57 -16 24
-28 47 -25 51 3 4 -2 10 -10 14 -8 3 -15 12 -15 19 0 8 -7 20 -15 27 -9 7 -13
15 -11 18 3 2 -4 16 -14 30 -11 13 -20 31 -20 38 0 8 -4 14 -8 14 -7 0 -36 47
-66 107 -6 13 -15 23 -19 23 -5 0 -5 4 -2 10 3 6 2 10 -3 10 -6 0 -15 14 -21
30 -5 17 -15 30 -22 30 -6 0 -9 7 -5 15 3 8 2 15 -3 15 -4 0 -14 12 -22 28 -7
15 -26 46 -41 68 -15 23 -24 44 -21 48 4 3 1 6 -6 6 -7 0 -9 5 -6 10 3 6 2 10
-3 10 -4 0 -20 22 -34 50 -14 27 -29 46 -33 42 -4 -4 -6 0 -3 8 3 8 0 20 -6
27 -22 24 -31 39 -34 53 -2 8 -7 17 -12 20 -5 3 -10 12 -12 20 -3 15 -14 31
-40 60 -9 10 -14 21 -11 24 3 2 -4 15 -16 27 -11 12 -18 26 -15 31 3 4 -1 11
-10 14 -9 3 -12 12 -9 21 4 11 2 14 -5 9 -8 -5 -12 0 -12 13 0 12 -4 21 -10
21 -5 0 -10 7 -10 15 0 8 -4 15 -9 15 -5 0 -12 11 -15 25 -4 14 -11 25 -17 25
-6 0 -7 5 -4 10 3 6 1 10 -4 10 -6 0 -11 9 -11 20 0 12 -7 20 -16 20 -10 0
-14 6 -10 15 3 8 1 15 -4 15 -6 0 -10 4 -10 10 0 5 -16 34 -35 65 -20 30 -33
55 -30 55 2 0 -2 8 -10 18 -8 9 -14 20 -13 23 2 3 -5 13 -15 23 -9 10 -15 22
-12 27 4 5 -1 9 -9 9 -9 0 -16 9 -16 20 0 11 -5 20 -11 20 -5 0 -7 5 -4 10 3
6 2 10 -4 10 -6 0 -13 11 -17 25 -3 14 -10 25 -15 25 -5 0 -9 7 -9 15 0 8 -4
15 -8 15 -5 0 -14 16 -22 35 -8 19 -18 35 -22 35 -5 0 -6 5 -3 10 3 6 1 10 -5
10 -6 0 -9 4 -6 9 4 5 3 11 -2 13 -11 4 -57 81 -54 91 1 4 -3 7 -8 7 -6 0 -10
7 -10 15 0 8 -4 15 -10 15 -5 0 -9 3 -9 8 3 17 -1 35 -7 29 -4 -3 -18 17 -32
46 -14 29 -29 54 -32 57 -4 3 -17 25 -31 50 -13 25 -27 47 -30 50 -4 3 -9 15
-13 28 -4 12 -12 20 -17 17 -5 -3 -6 1 -3 9 3 9 1 16 -5 16 -6 0 -11 6 -11 14
0 7 -7 19 -15 26 -8 7 -12 16 -9 21 3 5 0 9 -5 9 -6 0 -11 7 -11 15 0 8 -4 15
-10 15 -5 0 -10 7 -10 15 0 8 -5 15 -11 15 -5 0 -8 4 -4 9 3 5 -2 16 -10 24
-8 9 -15 20 -15 25 0 5 -7 15 -15 22 -8 7 -13 16 -10 20 3 5 1 10 -4 12 -5 1
-11 10 -13 18 -2 8 -12 23 -23 33 -11 10 -14 16 -7 12 7 -3 1 10 -13 31 -22
32 -23 38 -10 48 8 6 16 21 18 34 2 13 10 28 18 33 8 5 10 9 4 9 -5 0 -1 7 9
15 11 8 17 15 13 15 -3 0 10 28 29 63 19 34 40 74 45 90 6 15 15 27 21 27 5 0
7 4 4 9 -3 5 1 14 9 21 8 7 12 16 9 21 -3 5 -1 9 3 9 5 0 17 20 28 45 11 25
24 45 28 45 5 0 6 4 3 9 -3 5 1 14 9 21 8 7 12 16 9 21 -3 5 -1 9 4 9 4 0 14
16 22 35 8 19 17 35 21 35 4 0 9 9 12 20 8 31 10 34 24 48 7 7 13 20 13 28 0
8 5 14 11 14 6 0 9 7 5 15 -3 8 -2 15 2 15 4 0 19 21 32 48 14 26 28 49 33 50
4 2 5 8 1 13 -3 5 2 12 10 15 9 3 14 10 11 14 -3 5 -1 11 5 15 5 3 10 15 10
26 0 11 5 17 10 14 9 -5 15 15 11 38 0 4 4 7 9 7 6 0 10 7 10 15 0 8 4 15 9
15 5 0 11 9 14 20 9 33 9 35 25 46 8 6 12 16 8 22 -4 7 -2 12 4 12 10 0 35 48
32 63 -1 4 2 7 6 7 5 0 17 18 27 40 10 22 22 40 27 40 4 0 8 6 8 13 0 8 7 28
16 46 l16 31 24 -22 c13 -13 24 -31 24 -40 0 -10 5 -18 10 -18 6 0 10 -7 10
-15 0 -8 5 -15 11 -15 5 0 8 -4 4 -9 -3 -5 -1 -12 5 -16 5 -3 19 -25 30 -48
10 -23 20 -37 20 -32 1 11 44 -65 61 -107 6 -16 15 -25 20 -22 5 3 9 -4 9 -15
0 -12 4 -21 9 -21 5 0 15 -16 22 -35 7 -19 16 -35 20 -35 4 0 12 -15 20 -32 7
-18 16 -35 20 -38 9 -7 59 -91 66 -112 3 -10 9 -18 14 -18 5 0 9 -5 9 -11 0
-6 8 -23 19 -37 10 -15 28 -43 39 -63 40 -72 47 -83 60 -97 6 -7 12 -20 12
-27 0 -8 7 -18 16 -23 8 -5 16 -15 17 -23 3 -18 48 -93 59 -97 5 -2 6 -8 2
-13 -3 -5 0 -9 5 -9 6 0 11 -9 11 -21 0 -11 4 -18 9 -15 5 3 12 -5 15 -19 4
-14 11 -25 17 -25 6 0 8 -4 5 -8 -3 -5 4 -18 14 -30 11 -12 20 -28 20 -37 0
-8 5 -15 10 -15 6 0 10 -7 10 -15 0 -8 5 -15 11 -15 5 0 7 -4 4 -10 -3 -5 -1
-10 6 -10 7 0 10 -3 6 -6 -3 -3 3 -15 14 -27 10 -11 19 -27 19 -34 0 -7 5 -13
11 -13 5 0 7 -4 4 -10 -3 -5 -1 -10 6 -10 7 0 10 -3 6 -6 -3 -3 3 -15 14 -27
10 -11 19 -27 19 -34 0 -7 4 -13 9 -13 5 0 11 -8 14 -17 3 -10 20 -40 37 -68
16 -27 33 -58 36 -67 4 -10 10 -18 15 -18 5 0 9 -6 9 -14 0 -8 7 -21 15 -29 8
-8 16 -21 17 -28 2 -8 8 -19 13 -26 6 -7 15 -18 20 -25 6 -7 21 -34 35 -60 14
-27 29 -48 33 -48 5 0 5 -4 2 -10 -3 -5 -3 -10 2 -10 4 0 17 -18 27 -40 11
-22 23 -40 28 -40 5 0 7 -4 4 -9 -3 -5 1 -14 9 -21 8 -7 15 -19 15 -26 0 -8 5
-14 10 -14 6 0 10 -9 10 -20 0 -11 5 -20 10 -20 6 0 10 -7 10 -15 0 -8 4 -15
8 -15 5 0 17 -18 28 -40 10 -22 23 -40 27 -40 5 0 6 -4 2 -9 -3 -6 3 -18 13
-28 11 -10 25 -33 33 -50 8 -18 17 -33 21 -33 5 0 8 -7 8 -15 0 -8 4 -15 8
-15 4 0 13 -12 20 -27 16 -36 55 -107 63 -113 4 -3 22 -31 40 -63 19 -32 41
-71 50 -85 9 -15 14 -30 12 -34 -2 -5 3 -8 11 -8 9 0 16 -7 16 -16 0 -9 9 -27
20 -41 11 -14 20 -32 20 -40 0 -8 5 -11 10 -8 6 3 10 -3 10 -14 0 -12 5 -21
11 -21 5 0 7 -5 4 -10 -3 -6 1 -13 9 -16 9 -3 16 -13 16 -21 0 -16 36 -73 55
-85 5 -4 6 -8 2 -8 -5 0 1 -13 13 -30 12 -16 18 -30 14 -30 -4 0 3 -8 14 -19
12 -10 22 -23 22 -30 0 -6 4 -11 9 -11 6 0 8 -9 6 -20 -2 -11 1 -19 8 -17 6 1
12 -2 12 -8 2 -13 36 -72 57 -97 10 -11 15 -25 12 -29 -3 -5 0 -9 5 -9 6 0 11
-7 11 -15 0 -7 7 -18 16 -23 9 -5 16 -12 16 -15 0 -17 11 -47 18 -47 4 0 15
-18 25 -40 10 -22 21 -40 25 -40 3 0 14 -18 24 -40 10 -22 22 -40 27 -40 6 0
8 -4 5 -8 -4 -7 37 -77 64 -109 6 -7 8 -13 5 -13 -3 0 3 -10 15 -22 11 -12 20
-26 20 -30 0 -5 12 -27 27 -51 15 -23 28 -47 29 -54 1 -6 11 -22 23 -34 12
-13 21 -29 21 -36 0 -7 5 -13 10 -13 6 0 10 -9 10 -20 0 -11 7 -23 15 -26 8
-4 12 -10 9 -15 -3 -5 0 -9 6 -9 6 0 8 -4 5 -10 -3 -5 -2 -10 3 -10 5 0 17
-18 27 -40 10 -22 21 -40 25 -40 4 0 10 -8 14 -17 7 -23 28 -56 41 -65 6 -4 6
-8 1 -8 -5 0 -2 -7 5 -16 17 -21 37 -55 45 -76 3 -10 10 -18 15 -18 5 0 9 -5
9 -11 0 -6 8 -23 19 -37 33 -49 70 -120 64 -126 -4 -3 2 -6 12 -6 10 0 15 -3
12 -6 -4 -4 2 -19 12 -33 28 -39 71 -114 78 -133 3 -10 9 -18 14 -18 5 0 9 -7
9 -15 0 -8 5 -15 10 -15 6 0 10 -8 10 -18 0 -10 9 -24 19 -32 11 -7 18 -17 16
-21 -3 -3 4 -18 15 -31 11 -14 16 -28 13 -32 -3 -3 -2 -6 4 -6 5 0 21 -21 34
-47 13 -27 26 -50 29 -53 13 -12 40 -60 33 -60 -4 0 1 -6 10 -12 9 -7 17 -20
19 -28 3 -14 7 -20 36 -54 7 -9 12 -18 12 -21 0 -3 0 -8 0 -13 0 -4 11 -20 25
-35 14 -15 23 -27 19 -27 -3 0 -1 -7 6 -15 13 -15 35 -11 25 6 -4 5 -1 9 5 9
9 0 29 37 27 50 -1 3 8 15 18 28 11 12 20 26 20 30 0 4 10 21 21 37 12 17 25
40 28 53 4 12 11 22 16 22 5 0 6 7 3 17 -4 11 -3 14 5 9 11 -6 14 -1 11 20 0
3 9 14 21 24 12 10 20 20 18 23 -5 6 36 77 45 77 4 0 5 5 2 10 -3 6 -1 10 5
10 6 0 8 5 5 10 -3 6 1 13 9 16 9 3 14 9 12 13 -6 11 31 71 39 63 5 -4 5 1 2
11 -4 9 -2 17 4 17 5 0 15 13 20 29 6 16 17 32 25 35 8 3 14 11 14 18 0 9 -3
8 -10 -2 -7 -10 -10 -11 -10 -2 0 7 7 15 15 18 8 4 12 10 9 15 -3 5 0 9 7 9 7
0 9 3 6 7 -4 3 2 12 13 20 12 8 17 20 13 30 -4 11 -3 14 5 9 8 -5 12 0 12 13
0 11 7 24 16 29 9 5 15 11 14 13 -4 7 33 79 41 79 5 0 15 24 18 45 0 3 5 11
11 18 21 25 58 86 65 106 3 12 11 21 17 21 5 0 8 6 5 14 -3 8 1 17 9 20 9 3
12 10 9 16 -3 5 -2 10 3 10 6 0 15 14 21 30 5 17 15 30 22 30 7 0 9 3 6 6 -4
4 2 19 11 33 10 14 27 43 37 64 11 20 24 37 28 37 5 0 4 7 -3 15 -7 8 -9 15
-6 15 4 0 -7 20 -24 44 -16 25 -30 49 -30 55 0 6 -4 11 -10 11 -5 0 -10 4 -10
9 0 6 -16 36 -34 67 -19 32 -32 62 -29 67 3 6 1 7 -4 4 -6 -4 -16 7 -23 23 -7
16 -18 35 -26 41 -8 6 -14 20 -14 30 0 11 -4 19 -10 19 -5 0 -17 17 -25 37 -9
21 -26 49 -38 62 -12 13 -15 21 -7 16 8 -5 5 3 -7 17 -13 13 -23 30 -23 36 0
7 -4 12 -10 12 -5 0 -10 6 -10 13 0 6 -9 23 -20 37 -11 14 -20 33 -20 43 0 9
-4 17 -8 17 -5 0 -16 16 -25 35 -9 19 -22 35 -29 35 -6 0 -9 3 -5 6 3 3 -5 24
-19 45 -13 21 -21 39 -18 39 4 0 -3 8 -14 19 -12 10 -19 21 -15 25 3 3 1 6 -5
6 -7 0 -11 3 -10 8 2 7 -50 101 -62 112 -3 3 -14 23 -25 44 -11 22 -25 45 -32
52 -7 6 -14 18 -15 25 -2 8 -10 20 -18 27 -13 12 -13 13 0 7 8 -4 5 2 -7 13
-12 11 -25 31 -29 46 -3 14 -10 26 -15 26 -5 0 -9 9 -9 20 0 11 -5 20 -11 20
-5 0 -15 14 -20 30 -6 16 -15 30 -20 30 -5 0 -9 5 -9 11 0 6 -9 24 -21 40 -11
16 -17 34 -13 40 4 7 3 9 -2 6 -9 -5 -65 81 -61 93 1 3 -8 16 -20 29 -12 13
-20 27 -18 31 3 5 -2 10 -10 14 -8 3 -15 15 -15 26 0 11 -4 20 -8 20 -5 0 -20
21 -33 48 -27 54 -60 105 -71 110 -5 2 -8 12 -8 22 0 10 -4 20 -9 22 -5 2 -11
9 -13 17 -2 8 -10 23 -17 33 -20 23 -70 108 -77 131 -4 9 -9 17 -13 17 -4 0
-13 16 -21 35 -8 19 -17 35 -22 35 -4 0 -8 7 -8 15 0 8 -4 15 -10 15 -5 0 -10
8 -10 18 0 10 -8 27 -18 38 -10 10 -21 27 -25 37 -3 9 -11 17 -16 17 -6 0 -8
7 -5 15 4 8 1 15 -5 15 -6 0 -11 6 -11 14 0 7 -10 24 -23 38 -13 14 -21 31
-19 38 3 7 -3 17 -12 22 -9 5 -16 16 -16 23 0 8 -5 15 -11 15 -5 0 -7 5 -4 10
3 6 1 10 -5 10 -6 0 -8 5 -5 10 3 6 1 10 -5 10 -6 0 -16 14 -21 30 -6 17 -15
30 -21 30 -5 0 -6 5 -3 10 3 6 3 10 -2 10 -4 0 -19 23 -32 50 -14 28 -29 50
-33 50 -4 0 -8 7 -8 15 0 8 -4 15 -10 15 -5 0 -10 9 -10 20 0 11 -4 20 -8 20
-5 0 -14 16 -22 35 -8 19 -17 35 -21 35 -3 0 -12 14 -19 30 -7 17 -17 30 -22
30 -5 0 -7 4 -3 9 3 6 -3 14 -12 20 -10 6 -14 11 -9 11 5 0 3 7 -4 15 -7 8 -9
15 -4 15 5 0 5 4 -1 8 -21 15 -50 56 -35 48 12 -6 12 -5 -1 6 -8 7 -22 27 -29
45 -8 17 -18 29 -22 27 -4 -3 -8 4 -8 14 0 11 -7 25 -15 32 -8 7 -15 19 -15
26 0 8 -9 23 -20 34 -11 11 -17 20 -14 20 3 0 -4 13 -15 29 -12 16 -21 34 -21
41 0 6 -4 8 -10 5 -6 -3 -7 1 -4 9 3 9 1 16 -5 16 -6 0 -11 7 -11 15 0 8 -5
15 -11 15 -5 0 -7 5 -4 10 3 6 2 10 -3 10 -5 0 -12 8 -15 18 -8 23 -40 75 -52
84 -7 5 -7 8 0 8 7 0 7 3 0 8 -13 9 -34 42 -41 65 -4 9 -10 17 -15 17 -5 0 -9
6 -9 14 0 7 -7 19 -15 26 -8 7 -12 16 -9 21 3 5 0 9 -5 9 -6 0 -11 7 -11 15 0
8 -5 15 -12 15 -6 0 -9 3 -6 6 6 5 -26 60 -52 92 -8 8 -7 12 1 12 6 0 2 8 -9
18 -11 9 -30 37 -43 62 -13 25 -26 47 -29 50 -3 3 -16 25 -29 50 -14 25 -31
51 -38 58 -7 8 -11 18 -8 23 4 5 1 9 -4 9 -6 0 -11 7 -11 15 0 8 -4 15 -9 15
-5 0 -12 8 -15 18 -8 21 -28 55 -45 76 -7 9 -11 16 -7 16 3 0 -7 19 -24 41
-16 23 -27 45 -24 50 3 5 0 9 -6 9 -10 0 -35 48 -32 62 1 5 -3 7 -10 5 -7 -1
-13 3 -13 8 -3 24 -25 65 -35 65 -5 0 -10 9 -10 20 0 11 -4 20 -10 20 -5 0
-12 11 -16 25 -3 14 -10 25 -15 25 -5 0 -9 9 -9 21 0 11 -4 18 -8 15 -4 -2
-13 7 -20 22 -11 27 -13 27 -107 27 -56 0 -95 -4 -95 -10 0 -5 -5 -3 -10 5 -6
9 -10 10 -10 3 0 -8 -9 -9 -30 -3 -17 5 -28 5 -25 0 3 -5 -4 -8 -15 -7 -11 1
-20 6 -20 12 0 6 -3 7 -8 0 -11 -15 -55 -18 -46 -2 6 9 4 9 -7 1 -8 -7 -26
-10 -42 -8 -18 2 -25 -1 -21 -8 5 -7 2 -8 -6 -3 -15 9 -110 13 -110 5 0 -3
-68 -5 -151 -5 -83 0 -153 -3 -156 -8 -2 -4 -12 -3 -22 3 -12 6 -22 5 -29 -2
-9 -9 -12 -9 -12 1 0 11 -3 11 -15 1 -11 -9 -15 -9 -15 -1 0 8 -5 9 -19 1 -14
-7 -21 -6 -24 3 -4 9 -6 9 -6 -1 -1 -10 -6 -10 -21 -2 -11 6 -20 7 -20 2 0
-12 -44 -10 -52 2 -5 8 -8 8 -8 0 0 -7 -19 -11 -50 -10 -28 0 -50 -3 -50 -9 0
-5 -5 -3 -10 5 -8 12 -10 12 -10 1 0 -11 -5 -9 -22 5 -12 10 -18 14 -15 8 5
-9 -16 -12 -71 -13 -42 -1 -110 -3 -150 -5 -40 -2 -75 0 -77 4 -5 9 102 120
116 120 5 0 9 7 9 16 0 8 5 12 10 9 6 -3 10 -2 10 4 0 13 172 186 183 183 4
-1 7 2 7 7 0 5 67 77 149 160 81 83 146 153 143 156 -3 3 0 5 7 5 12 0 106 91
104 100 -1 3 12 15 28 25 16 11 29 26 29 33 0 7 3 12 8 10 4 -2 26 16 48 39
23 24 39 43 35 43 -3 0 8 9 24 20 17 11 27 20 23 20 -5 0 0 8 10 18 9 11 21
17 26 14 11 -6 -4 41 -16 49 -5 3 -10 15 -11 27 0 11 -4 19 -8 16 -4 -2 -12
10 -19 26 -7 17 -16 30 -21 30 -5 0 -8 3 -7 8 2 10 -24 62 -32 62 -3 0 -12 16
-20 35 -8 19 -16 35 -19 35 -6 0 -32 53 -33 67 0 4 -9 14 -19 21 -11 7 -19 20
-19 28 0 8 -9 24 -20 36 -10 12 -17 24 -15 28 2 3 -4 12 -15 20 -10 7 -16 19
-13 27 3 7 0 13 -6 13 -6 0 -11 5 -11 11 0 6 -7 17 -15 26 -8 8 -13 19 -9 24
3 5 -2 12 -10 15 -9 3 -13 10 -10 15 3 5 0 9 -5 9 -6 0 -11 7 -11 15 0 8 -5
15 -11 15 -5 0 -7 5 -4 10 3 6 -1 13 -9 16 -9 3 -14 10 -11 14 3 4 -2 13 -10
20 -8 7 -15 22 -15 33 0 11 -3 18 -6 14 -4 -3 -18 16 -32 43 -14 28 -30 50
-34 50 -5 0 -7 4 -3 9 3 5 0 15 -7 23 -7 7 -22 29 -32 48 -11 19 -24 38 -28
41 -5 3 -10 12 -12 20 -2 15 -38 76 -55 95 -5 7 -8 14 -5 17 2 2 -2 10 -11 17
-8 7 -15 18 -15 25 0 8 -4 15 -9 17 -5 2 -11 10 -13 18 -2 8 -5 17 -8 20 -15
15 -59 90 -53 90 5 0 2 4 -6 9 -8 5 -16 16 -17 25 -1 9 -9 22 -17 31 -8 8 -21
28 -29 45 -7 16 -17 30 -21 30 -5 0 -5 5 -2 10 3 6 2 10 -4 10 -6 0 -13 11
-17 25 -3 14 -10 25 -14 25 -4 0 -13 15 -21 33 -7 17 -16 34 -19 37 -4 3 -17
25 -31 50 -13 25 -27 47 -30 50 -3 3 -16 25 -30 50 -13 25 -27 47 -31 48 -5 2
-8 10 -8 18 0 8 -4 14 -10 14 -5 0 -10 9 -10 20 0 11 -5 20 -11 20 -6 0 -8 7
-5 17 4 10 4 14 0 10 -4 -4 -12 0 -19 9 -8 12 -30 17 -83 18 -42 0 -72 -3 -72
-9 0 -7 -3 -7 -8 0 -7 10 -182 15 -182 5 0 -7 -137 -3 -149 4 -5 3 -12 0 -15
-6 -5 -10 -7 -10 -12 -1 -4 8 -12 10 -22 4 -9 -4 -46 -7 -82 -5 -36 1 -70 -2
-77 -7 -7 -7 -13 -6 -18 0 -8 13 -57 10 -67 -4 -5 -6 -8 -6 -8 3 0 6 -7 12
-16 12 -8 0 -12 -4 -9 -10 3 -6 -1 -7 -9 -4 -9 3 -13 10 -10 15 3 5 3 9 0 9
-3 0 -7 -4 -11 -9z"/>
<path d="M4262 13231 c-7 -16 -14 -39 -15 -50 -1 -12 -5 -21 -10 -21 -5 0 -7
-9 -4 -21 3 -12 0 -22 -8 -25 -8 -3 -12 -11 -9 -18 2 -6 -2 -31 -11 -55 -8
-24 -12 -47 -9 -52 3 -5 0 -9 -6 -9 -6 0 -9 -4 -5 -9 3 -5 1 -13 -5 -16 -8 -5
-7 -12 2 -23 7 -10 8 -14 4 -10 -13 11 -35 -34 -24 -49 5 -7 5 -14 -2 -18 -5
-3 -10 -20 -10 -36 0 -17 -3 -28 -7 -26 -5 3 -9 -13 -10 -35 -2 -23 -8 -47
-14 -54 -9 -11 -8 -14 1 -14 10 0 10 -3 0 -15 -6 -8 -9 -19 -6 -24 4 -5 3 -12
-2 -15 -4 -2 -9 -18 -10 -35 -1 -17 -6 -41 -11 -53 -4 -13 -8 -35 -7 -50 1
-16 -2 -28 -6 -28 -4 0 -7 -8 -7 -17 -1 -28 -9 -98 -11 -98 -1 0 -4 -22 -7
-50 -2 -27 -9 -57 -14 -67 -7 -13 -6 -18 3 -18 9 0 10 -3 2 -8 -6 -4 -11 -30
-10 -59 1 -28 -2 -49 -6 -46 -5 2 -8 -13 -9 -34 -3 -108 -5 -139 -12 -150 -4
-6 -1 -14 5 -16 10 -4 10 -6 1 -6 -7 -1 -10 -8 -7 -16 4 -9 0 -15 -7 -15 -9 0
-10 -3 -4 -8 14 -9 14 -92 1 -92 -6 0 -5 -5 1 -11 7 -7 8 -21 3 -38 -4 -14 -4
-35 0 -46 4 -11 3 -28 -2 -37 -5 -10 -5 -18 -1 -18 10 0 10 -101 0 -117 -4 -6
-4 -14 1 -17 5 -3 7 -20 5 -38 -2 -18 -3 -44 -3 -58 1 -14 1 -31 1 -37 -2 -24
-1 -38 2 -80 2 -24 -1 -43 -6 -43 -6 0 -6 -5 0 -12 5 -7 8 -52 8 -100 0 -52 4
-88 10 -88 6 0 3 -5 -5 -10 -13 -9 -13 -10 0 -10 13 0 13 -1 0 -10 -9 -6 -10
-10 -3 -10 7 0 10 -9 8 -21 -2 -12 0 -30 6 -40 7 -13 6 -19 -1 -19 -7 0 -8 -6
-2 -17 4 -10 8 -33 7 -50 -1 -18 3 -33 7 -33 5 0 5 -8 0 -17 -7 -11 -6 -21 4
-30 9 -10 11 -21 4 -37 -5 -13 -6 -27 -2 -30 3 -4 7 -14 9 -24 4 -31 12 -86
18 -137 4 -27 9 -57 12 -65 3 -8 7 -26 7 -40 1 -14 4 -29 7 -35 4 -5 6 -22 5
-37 -1 -16 2 -28 7 -28 5 0 7 -7 4 -15 -4 -8 -2 -17 3 -20 5 -3 7 -12 3 -20
-3 -8 0 -15 7 -15 6 0 8 -5 5 -10 -4 -6 -1 -17 5 -25 9 -11 9 -15 1 -15 -9 0
-9 -5 -1 -20 6 -11 8 -24 5 -29 -3 -5 -1 -11 5 -13 5 -1 10 -20 12 -40 1 -21
6 -38 10 -38 4 0 4 -7 1 -17 -4 -11 -3 -14 5 -9 8 5 10 2 5 -9 -3 -10 0 -21 8
-26 12 -8 12 -10 0 -18 -9 -6 -10 -11 -2 -15 6 -4 11 -16 11 -27 0 -10 4 -19
8 -19 5 0 8 -14 7 -31 -1 -17 4 -33 10 -35 7 -3 11 -16 9 -30 -1 -13 2 -24 7
-24 6 0 7 -4 4 -10 -3 -5 -1 -10 6 -10 8 0 8 -4 -1 -15 -7 -8 -8 -15 -3 -15 8
0 29 -54 39 -100 0 -3 6 -18 12 -33 7 -16 10 -33 6 -38 -3 -5 0 -9 5 -9 6 0
11 -8 11 -18 0 -10 6 -24 13 -31 10 -11 9 -12 -3 -6 -11 6 -10 3 3 -12 9 -11
17 -26 17 -34 0 -8 6 -21 13 -28 10 -11 9 -12 -2 -6 -11 6 -11 2 2 -21 13 -24
25 -52 32 -74 1 -3 7 -18 14 -35 30 -67 44 -109 43 -117 -1 -5 3 -8 10 -8 6 0
8 -3 5 -6 -3 -4 -1 -16 5 -28 7 -11 11 -25 10 -29 -1 -4 4 -10 12 -13 8 -3 12
-13 9 -25 -3 -10 -1 -19 5 -19 12 0 34 -59 26 -71 -3 -5 2 -9 10 -9 9 0 15 -3
15 -7 -3 -19 2 -34 9 -29 4 2 9 -4 10 -15 4 -44 6 -49 19 -49 8 0 11 -5 7 -11
-3 -6 -3 -14 2 -18 14 -10 34 -49 34 -66 0 -8 5 -15 10 -15 6 0 10 -6 10 -14
0 -7 11 -30 25 -50 14 -21 20 -34 13 -31 -7 4 -6 1 2 -7 8 -7 16 -20 18 -28 2
-8 8 -16 13 -18 5 -2 9 -10 9 -18 0 -8 5 -14 11 -14 5 0 7 -5 3 -11 -3 -6 -2
-14 3 -18 11 -8 83 -130 83 -142 0 -5 5 -9 10 -9 6 0 10 -7 10 -15 0 -8 5 -15
11 -15 5 0 7 -4 4 -10 -3 -5 -2 -10 3 -10 5 0 12 -8 16 -17 5 -16 18 -39 39
-67 27 -38 57 -88 57 -96 0 -5 6 -13 14 -17 7 -4 21 -23 30 -41 9 -18 21 -30
27 -27 5 4 8 3 7 -2 -5 -16 25 -73 39 -73 8 0 11 -5 8 -10 -3 -6 1 -13 9 -16
9 -3 13 -10 10 -15 -3 -5 0 -9 5 -9 6 0 11 -5 11 -11 0 -7 10 -20 22 -30 11
-11 17 -19 12 -19 -5 0 4 -12 19 -26 15 -14 25 -29 22 -35 -4 -5 0 -9 7 -9 7
0 22 -16 32 -35 11 -19 23 -35 28 -35 4 0 8 -7 8 -16 0 -8 5 -12 10 -9 6 3 10
1 10 -4 0 -11 15 -31 58 -79 12 -14 22 -29 22 -34 0 -5 5 -6 10 -3 6 3 10 -1
10 -9 0 -9 9 -21 20 -28 11 -7 20 -18 20 -23 0 -6 18 -27 40 -48 22 -20 40
-39 40 -43 0 -4 8 -14 18 -23 11 -9 38 -38 62 -66 24 -27 47 -49 51 -48 4 2
10 -6 14 -16 3 -10 19 -29 35 -41 16 -12 27 -27 24 -31 -3 -5 -1 -9 4 -9 5 0
51 -40 101 -90 50 -49 96 -90 101 -90 6 0 10 -7 10 -15 0 -8 4 -15 10 -15 5 0
25 -16 44 -35 20 -19 40 -35 45 -35 5 0 13 -9 16 -20 3 -11 11 -20 17 -20 9 0
35 -22 94 -77 13 -13 27 -23 31 -23 5 0 15 -8 24 -17 8 -10 32 -31 53 -48 21
-16 48 -38 59 -48 12 -10 36 -27 54 -38 18 -11 33 -26 33 -31 0 -6 3 -9 6 -5
3 3 22 -10 42 -29 20 -18 38 -32 40 -29 3 3 12 -3 21 -13 9 -9 36 -31 61 -47
25 -16 48 -34 52 -40 4 -5 8 -6 8 -1 0 5 9 -1 20 -14 11 -13 20 -20 20 -16 0
4 10 -2 22 -14 12 -11 28 -20 35 -20 7 0 13 -5 13 -11 0 -5 20 -19 45 -30 25
-11 45 -24 45 -29 0 -6 7 -10 15 -10 8 0 15 -5 15 -11 0 -5 5 -7 10 -4 6 3 10
2 10 -3 0 -5 15 -17 33 -26 51 -26 122 -68 127 -76 3 -4 20 -13 38 -21 17 -8
32 -18 32 -23 0 -4 7 -5 16 -2 8 3 12 2 9 -4 -3 -5 6 -12 20 -16 14 -3 25 -10
25 -16 0 -5 5 -6 10 -3 6 3 10 1 10 -5 0 -6 4 -9 9 -6 5 4 11 2 13 -2 1 -5 35
-25 75 -44 39 -20 69 -39 65 -43 -4 -4 -2 -5 3 -3 12 3 167 -70 176 -84 3 -5
8 -8 10 -7 2 1 20 -3 39 -11 19 -7 38 -12 43 -11 4 0 7 -4 7 -10 0 -5 5 -7 10
-4 6 3 10 1 10 -4 0 -6 9 -11 21 -11 11 0 18 -4 15 -8 -2 -4 7 -9 22 -10 15
-1 29 -7 30 -12 2 -6 12 -10 22 -10 10 0 22 -4 25 -10 3 -5 15 -10 26 -10 10
0 19 -3 19 -8 0 -7 61 -31 90 -35 8 -1 20 -8 26 -16 6 -8 16 -11 22 -7 7 4 12
2 12 -4 0 -6 4 -9 9 -5 5 3 15 0 23 -7 7 -7 24 -14 38 -16 13 -1 27 -7 31 -14
4 -6 11 -8 16 -5 6 4 19 0 29 -8 10 -8 28 -15 39 -15 11 0 31 -8 44 -17 14 -9
21 -11 16 -4 -4 7 5 5 21 -5 15 -11 36 -18 45 -16 10 2 20 -2 24 -8 3 -5 17
-10 31 -10 13 0 24 -4 24 -9 0 -6 9 -8 20 -6 11 2 20 -1 20 -6 0 -6 5 -7 10
-4 6 3 10 1 10 -6 0 -6 8 -9 20 -6 11 3 20 1 20 -4 0 -4 6 -6 14 -3 8 3 17 0
21 -5 3 -6 11 -9 16 -6 5 4 9 1 9 -5 0 -6 5 -8 10 -5 6 4 17 1 25 -5 12 -10
15 -10 15 1 0 9 3 10 8 3 7 -11 60 -29 75 -26 4 1 7 -2 7 -7 0 -5 11 -8 25 -5
14 2 25 0 25 -6 0 -6 4 -9 9 -6 5 4 12 0 14 -6 4 -9 6 -9 6 -1 1 13 41 5 41
-8 0 -4 14 -6 30 -4 17 2 30 -1 30 -6 0 -6 8 -9 18 -8 9 1 28 -3 42 -8 27 -11
50 -7 50 8 0 5 -6 12 -13 15 -8 3 -20 20 -27 39 -8 19 -17 35 -22 35 -4 0 -8
6 -8 14 0 8 -3 16 -7 18 -10 4 -42 57 -50 81 -3 9 -9 17 -14 17 -5 0 -9 6 -9
14 0 7 -7 19 -15 26 -8 6 -13 17 -12 23 1 7 -3 11 -10 10 -7 -2 -10 4 -7 12 4
8 1 15 -4 15 -6 0 -14 10 -18 22 -4 13 -14 29 -23 36 -13 11 -13 12 -1 7 9 -4
6 2 -5 12 -11 10 -21 25 -23 33 -2 8 -9 18 -15 22 -7 4 -7 8 -2 8 6 0 6 3 0 8
-6 4 -24 30 -39 57 -16 28 -40 65 -53 83 -13 17 -21 37 -18 42 3 6 1 10 -5 10
-5 0 -20 20 -32 45 -12 24 -25 42 -30 39 -4 -3 -8 4 -8 15 0 12 -4 21 -10 21
-5 0 -10 7 -10 15 0 8 -5 15 -11 15 -5 0 -7 4 -4 10 3 5 1 10 -5 10 -6 0 -8 4
-5 10 3 6 2 10 -3 10 -5 0 -15 14 -22 30 -7 17 -16 30 -20 30 -8 0 -23 38 -21
53 1 4 -6 7 -14 7 -8 0 -15 6 -15 13 0 23 -25 67 -38 67 -6 0 -11 3 -11 8 3
17 -2 31 -13 44 -21 22 -79 120 -66 112 7 -4 8 -3 4 4 -4 7 -14 12 -22 12 -8
0 -13 4 -9 9 6 10 -29 34 -37 25 -3 -2 -11 2 -18 11 -7 8 -19 15 -26 15 -8 0
-14 4 -14 10 0 5 -7 7 -15 4 -8 -4 -15 -1 -15 6 0 6 -4 8 -10 5 -5 -3 -10 -2
-10 3 0 5 -10 12 -22 16 -13 3 -23 5 -23 4 0 -1 -10 7 -23 17 -12 11 -26 20
-30 20 -4 0 -23 10 -43 23 -20 12 -40 22 -44 22 -4 0 -18 9 -32 20 -14 11 -29
18 -33 15 -4 -3 -11 2 -14 11 -3 8 -10 12 -16 9 -5 -3 -10 -1 -10 4 0 6 -7 11
-15 11 -8 0 -15 5 -15 12 0 6 -3 9 -6 5 -4 -3 -12 -1 -20 6 -34 30 -44 37 -44
30 0 -4 -6 -1 -13 8 -7 9 -16 17 -22 19 -30 8 -54 24 -49 32 3 5 2 8 -3 7 -11
-3 -63 23 -63 31 0 4 -13 13 -30 20 -16 7 -27 16 -24 21 3 5 2 8 -3 7 -11 -4
-83 44 -83 55 0 5 -5 5 -10 2 -6 -3 -13 1 -16 9 -3 9 -10 16 -15 16 -11 0 -32
16 -57 43 -9 9 -22 17 -29 17 -6 0 -17 8 -22 18 -6 9 -11 13 -11 9 0 -4 -11 2
-23 15 -13 13 -41 37 -62 53 -22 17 -49 40 -62 53 -13 13 -23 20 -23 17 0 -4
-18 12 -40 34 -23 23 -44 41 -48 41 -5 0 -19 13 -32 30 -14 16 -31 29 -38 30
-7 0 -10 5 -7 10 3 6 -1 10 -10 10 -9 0 -13 4 -10 10 3 6 2 10 -3 10 -14 0
-222 207 -215 214 4 3 -1 6 -10 6 -9 0 -17 7 -17 16 0 8 -4 12 -10 9 -5 -3
-10 -3 -10 2 0 14 -47 63 -54 56 -3 -3 -6 1 -6 11 0 9 -7 19 -15 22 -8 3 -17
14 -20 25 -4 11 -10 17 -15 14 -4 -3 -14 8 -21 24 -7 16 -17 27 -21 25 -4 -3
-8 -1 -8 3 0 5 -11 21 -25 36 -14 15 -23 27 -20 27 3 0 -7 13 -22 29 -41 43
-53 59 -53 71 0 6 -4 8 -10 5 -5 -3 -10 0 -10 7 0 8 -9 20 -19 28 -11 7 -18
17 -15 22 3 4 0 8 -7 8 -7 0 -9 3 -6 7 4 3 -2 12 -13 20 -11 8 -20 21 -20 30
0 9 -3 13 -7 10 -6 -7 -27 23 -39 56 -3 9 -9 17 -13 17 -4 0 -22 21 -39 46
-18 25 -27 42 -20 39 7 -4 0 5 -17 20 -16 14 -29 30 -29 33 1 4 -11 26 -27 48
-15 23 -25 44 -22 48 4 3 -2 6 -12 6 -10 0 -15 3 -12 7 4 3 -1 15 -10 26 -13
15 -14 18 -3 12 8 -4 5 2 -7 14 -13 12 -23 28 -23 35 0 7 -8 20 -18 29 -10 9
-24 32 -32 52 -8 19 -18 35 -23 35 -5 0 -7 7 -3 15 3 8 1 15 -3 15 -10 0 -61
86 -61 102 0 5 -7 16 -15 25 -8 8 -13 19 -10 24 4 5 1 9 -5 9 -6 0 -9 4 -6 9
3 5 -1 12 -10 15 -8 3 -12 10 -9 16 3 6 -1 17 -9 26 -9 8 -16 24 -16 35 0 10
-4 19 -9 19 -7 0 -31 52 -32 70 0 3 -11 24 -25 48 -14 23 -22 42 -17 42 4 0 2
5 -5 12 -7 7 -12 20 -12 29 0 10 -5 19 -10 21 -6 2 -12 14 -15 27 -2 13 -12
35 -21 48 -9 14 -12 23 -6 19 6 -3 5 4 -1 19 -7 14 -16 25 -20 25 -5 0 -6 4
-3 8 3 5 -4 26 -16 48 -11 21 -20 40 -19 42 0 1 1 11 1 23 0 13 -4 18 -12 13
-6 -4 -8 -3 -5 3 3 5 -5 39 -18 75 -13 36 -21 69 -18 72 4 3 2 6 -4 6 -9 0
-24 46 -22 66 0 4 -5 11 -13 15 -11 7 -10 9 1 9 11 0 9 5 -5 22 -12 14 -14 19
-4 13 12 -6 13 -5 3 6 -7 7 -13 21 -13 31 0 10 -5 18 -10 18 -7 0 -7 7 1 21 6
12 7 19 1 15 -11 -7 -25 51 -15 67 3 6 1 7 -5 3 -11 -6 -15 5 -11 30 0 4 -5
11 -13 15 -10 7 -10 9 0 9 10 0 10 4 0 23 -6 12 -13 31 -13 42 -1 11 -4 27 -7
35 -9 22 -19 71 -20 103 -1 15 -6 27 -10 27 -5 0 -6 5 -3 10 3 6 3 16 -1 22
-5 7 -9 26 -10 43 -1 16 -6 41 -10 55 -4 14 -7 37 -8 53 0 15 -4 27 -7 27 -3
0 -5 12 -3 27 1 15 -2 33 -8 40 -8 10 -7 13 3 13 9 0 10 3 3 8 -5 4 -11 25
-13 47 -1 21 -7 46 -14 54 -9 11 -9 13 0 8 8 -5 11 0 10 13 -1 11 -4 20 -8 20
-3 0 -5 12 -5 28 1 15 -2 37 -6 50 -5 14 -3 22 3 22 8 0 8 4 0 13 -6 8 -8 17
-4 21 4 4 1 11 -7 16 -8 6 -10 10 -4 10 6 0 11 7 11 15 0 8 -5 15 -10 15 -5 0
-4 6 2 14 7 8 8 17 3 20 -5 3 -8 26 -7 51 0 25 -2 45 -7 45 -4 0 -3 11 2 25 7
17 6 25 -1 25 -8 0 -7 5 1 15 7 8 8 15 3 15 -5 0 -9 14 -8 30 0 17 4 30 8 30
5 0 5 5 1 12 -12 19 -11 71 1 87 7 11 7 13 -2 8 -6 -4 -14 -3 -18 3 -3 5 -2
10 3 10 5 0 9 54 9 120 0 66 -4 120 -9 120 -5 0 -7 4 -4 9 3 4 -3 19 -14 31
-11 12 -17 27 -14 31 3 5 -2 9 -11 9 -9 0 -13 5 -10 10 3 6 1 10 -6 10 -7 0
-9 3 -6 7 4 3 -4 21 -18 39 -14 18 -25 37 -25 42 0 5 -7 15 -15 22 -8 7 -12
16 -9 21 3 5 1 9 -5 9 -5 0 -13 9 -16 20 -4 11 -11 18 -16 15 -5 -3 -6 1 -3 9
3 8 -4 24 -15 35 -12 12 -21 28 -21 36 0 8 -4 15 -9 15 -5 0 -14 14 -21 30 -7
17 -15 30 -19 30 -4 0 -12 12 -19 28 -23 50 -37 72 -44 72 -5 0 -8 9 -8 19 0
10 -7 22 -16 25 -8 3 -12 10 -9 16 3 5 1 10 -4 10 -6 0 -11 6 -11 13 0 7 -9
23 -20 35 -12 12 -18 22 -16 22 3 0 -6 16 -19 36 -14 20 -25 41 -25 46 0 5 -5
6 -12 2 -6 -4 -8 -3 -5 3 4 6 -7 31 -23 57 -17 26 -30 49 -30 52 0 3 -7 12
-15 21 -8 8 -13 19 -10 24 4 5 -1 9 -9 9 -9 0 -16 9 -16 20 0 11 -5 20 -11 20
-5 0 -8 4 -5 9 3 5 -1 11 -9 15 -8 3 -15 11 -15 19 0 7 -11 28 -25 47 -13 18
-22 37 -19 41 3 5 1 9 -3 9 -9 0 -54 68 -56 85 -1 9 -12 24 -42 59 -5 6 -11
18 -13 26 -2 8 -7 17 -11 20 -4 3 -22 32 -41 65 -19 33 -37 62 -41 65 -4 3 -9
12 -11 20 -2 8 -11 23 -20 34 -10 11 -18 26 -18 33 0 7 -4 13 -8 13 -5 0 -12
12 -18 26 l-9 26 -13 -31z"/>
<path d="M16694 13198 c-7 -22 -53 -98 -65 -108 -3 -3 -9 -15 -13 -27 -4 -13
-12 -23 -17 -23 -6 0 -7 -4 -4 -10 3 -5 1 -10 -5 -10 -6 0 -8 -4 -5 -10 3 -5
1 -10 -4 -10 -6 0 -11 -7 -11 -15 0 -8 -3 -15 -8 -15 -4 0 -14 -15 -22 -32 -7
-18 -22 -42 -32 -52 -9 -10 -15 -23 -12 -28 3 -4 1 -8 -3 -8 -5 0 -17 -17 -28
-37 -11 -21 -24 -41 -30 -45 -5 -4 -6 -8 -2 -8 5 0 1 -7 -7 -16 -9 -8 -13 -20
-10 -26 4 -6 3 -8 -3 -5 -6 4 -18 -11 -28 -33 -10 -22 -22 -40 -27 -40 -5 0
-6 -4 -3 -10 3 -5 1 -10 -4 -10 -6 0 -11 -7 -11 -15 0 -8 -4 -15 -9 -15 -5 0
-13 -10 -17 -22 -4 -13 -20 -42 -36 -65 -16 -24 -26 -43 -23 -43 3 0 -4 -10
-15 -22 -11 -13 -23 -33 -26 -45 -4 -13 -10 -23 -15 -23 -5 0 -9 -7 -9 -15 0
-8 -4 -15 -10 -15 -5 0 -10 -6 -10 -14 0 -7 -7 -19 -15 -26 -8 -7 -12 -16 -10
-21 3 -4 -3 -12 -12 -18 -10 -6 -13 -11 -8 -11 6 0 5 -4 -2 -8 -6 -4 -13 -14
-15 -22 -2 -8 -11 -23 -20 -34 -10 -10 -15 -23 -12 -28 3 -4 1 -8 -5 -8 -5 0
-27 -31 -47 -70 -21 -38 -42 -70 -47 -70 -4 0 -5 -4 -2 -10 3 -5 1 -10 -4 -10
-6 0 -11 -7 -11 -15 0 -8 -5 -15 -11 -15 -5 0 -7 -4 -4 -10 3 -5 -3 -15 -14
-21 -10 -7 -17 -19 -14 -26 3 -7 0 -13 -6 -13 -6 0 -11 -7 -11 -15 0 -8 -5
-15 -11 -15 -5 0 -7 -4 -4 -10 3 -5 2 -10 -3 -10 -5 0 -15 -13 -22 -30 -7 -16
-16 -30 -21 -30 -5 0 -8 -3 -7 -7 1 -5 -10 -27 -25 -50 -15 -24 -27 -47 -27
-53 0 -5 -5 -10 -12 -10 -6 0 -8 -3 -5 -7 4 -3 2 -12 -4 -20 -9 -9 -8 -13 0
-13 8 0 9 -5 1 -19 -6 -12 -6 -22 -1 -25 10 -7 9 -25 -2 -43 -4 -6 -3 -15 3
-18 7 -5 8 -11 1 -19 -6 -7 -6 -17 -1 -26 5 -9 5 -19 -1 -26 -7 -8 -6 -14 1
-19 8 -5 8 -11 -1 -21 -7 -9 -8 -14 -1 -14 11 0 10 -25 -1 -36 -4 -4 -2 -13 5
-21 8 -10 8 -17 0 -25 -8 -8 -8 -17 -1 -30 5 -10 6 -18 2 -18 -4 0 -9 -22 -9
-50 -1 -34 2 -47 10 -43 6 4 5 -1 -3 -10 -7 -9 -11 -24 -7 -32 3 -8 2 -15 -2
-15 -4 0 -7 -27 -6 -60 0 -33 -2 -60 -5 -60 -3 0 -6 -27 -6 -60 0 -33 -4 -60
-8 -60 -5 0 -5 -5 -2 -10 4 -6 2 -17 -5 -25 -8 -9 -8 -15 0 -20 8 -5 8 -11 -1
-21 -8 -10 -8 -14 0 -14 8 0 7 -6 -1 -20 -11 -17 -10 -22 0 -29 11 -7 11 -9
-1 -14 -10 -4 -14 -17 -13 -37 1 -17 -1 -33 -4 -35 -3 -2 -7 -25 -9 -52 -1
-26 -5 -50 -9 -53 -4 -3 -8 -14 -8 -25 -2 -24 -12 -80 -14 -80 -1 0 -3 -9 -5
-20 -5 -35 -14 -79 -24 -112 -5 -18 -8 -33 -6 -33 2 0 -2 -18 -10 -40 -8 -22
-12 -40 -8 -40 3 0 0 -6 -6 -14 -9 -11 -9 -15 1 -19 11 -4 10 -6 0 -6 -7 -1
-10 -5 -7 -11 3 -5 2 -10 -4 -10 -5 0 -8 -9 -6 -20 2 -11 0 -20 -4 -20 -8 0
-26 -75 -22 -92 0 -5 -4 -8 -10 -8 -5 0 -7 -5 -4 -10 4 -6 1 -17 -5 -25 -7 -8
-10 -15 -7 -15 4 0 -5 -29 -18 -64 -13 -35 -21 -66 -18 -70 4 -3 1 -6 -5 -6
-7 0 -11 -3 -10 -7 2 -13 -14 -67 -24 -80 -5 -7 -7 -17 -3 -23 3 -5 1 -10 -5
-10 -6 0 -9 -4 -5 -9 3 -5 1 -12 -5 -16 -6 -4 -8 -11 -5 -16 4 -5 1 -9 -5 -9
-7 0 -10 -7 -6 -15 3 -8 1 -15 -5 -15 -6 0 -7 -4 -4 -10 3 -5 1 -10 -6 -10 -7
0 -9 -3 -6 -7 4 -3 0 -17 -8 -30 -9 -13 -13 -23 -10 -23 3 0 -1 -13 -9 -29 -9
-16 -12 -31 -9 -35 4 -3 1 -6 -6 -6 -7 0 -9 -4 -6 -10 3 -5 2 -10 -2 -10 -5 0
-15 -17 -22 -37 -8 -21 -24 -60 -37 -87 -13 -28 -24 -56 -24 -63 0 -7 -4 -13
-9 -13 -9 0 -23 -33 -25 -58 -1 -7 -6 -16 -11 -20 -6 -4 -15 -17 -22 -29 -10
-17 -10 -23 0 -26 7 -3 3 -6 -7 -6 -11 -1 -16 -4 -13 -8 4 -3 3 -11 -2 -17
-23 -27 -79 -145 -73 -152 4 -4 2 -4 -5 0 -8 4 -15 -2 -19 -19 -3 -14 -10 -25
-15 -25 -5 0 -9 -10 -9 -22 0 -12 -3 -18 -7 -15 -7 7 -38 -51 -34 -66 0 -4 -6
-10 -14 -13 -8 -4 -15 -14 -15 -23 0 -9 -9 -24 -20 -34 -11 -9 -20 -24 -20
-32 0 -8 -4 -15 -8 -15 -5 0 -15 -12 -23 -27 -8 -16 -18 -33 -24 -40 -5 -7
-16 -19 -23 -28 -7 -8 -10 -15 -7 -15 3 0 -3 -10 -15 -22 -11 -12 -20 -25 -20
-30 0 -4 -8 -16 -17 -26 -23 -25 -55 -70 -53 -74 2 -2 -11 -19 -28 -38 -17
-19 -31 -38 -32 -42 0 -4 -16 -24 -35 -44 -19 -20 -35 -39 -35 -43 0 -4 -14
-22 -31 -39 -17 -18 -29 -32 -26 -32 3 0 -7 -13 -21 -28 -15 -16 -47 -53 -72
-82 -25 -29 -64 -72 -87 -96 -24 -24 -43 -46 -43 -49 0 -9 -223 -225 -232
-225 -5 0 -6 -4 -3 -10 3 -5 2 -10 -2 -10 -8 0 -63 -47 -145 -126 -21 -19 -38
-33 -38 -29 0 3 -15 -10 -34 -30 -19 -19 -37 -35 -40 -35 -5 0 -38 -28 -87
-72 -10 -10 -21 -18 -24 -18 -5 0 -22 -13 -53 -41 -9 -8 -30 -23 -47 -34 -16
-10 -34 -24 -38 -32 -5 -7 -12 -11 -18 -8 -5 4 -12 -1 -15 -9 -3 -9 -12 -16
-19 -16 -7 0 -15 -7 -19 -15 -3 -8 -12 -15 -21 -15 -8 0 -15 -5 -15 -11 0 -5
-4 -7 -10 -4 -5 3 -10 2 -10 -4 0 -6 -16 -18 -35 -27 -19 -9 -35 -20 -35 -25
0 -5 -7 -9 -15 -9 -8 0 -15 -5 -15 -11 0 -5 -4 -8 -9 -5 -5 3 -12 -1 -15 -10
-3 -8 -10 -12 -16 -9 -5 3 -10 2 -10 -4 0 -5 -16 -15 -35 -21 -19 -6 -33 -15
-30 -20 3 -4 -12 -15 -33 -24 -41 -18 -69 -34 -90 -53 -13 -13 -28 -17 -45
-14 -5 1 -6 -3 -2 -9 5 -9 -1 -12 -21 -9 -4 0 -10 -4 -13 -9 -8 -12 -93 -57
-103 -54 -5 1 -8 -2 -8 -7 0 -5 -10 -13 -22 -17 -13 -3 -31 -13 -40 -22 -10
-8 -18 -12 -18 -7 0 4 -7 2 -15 -5 -8 -7 -15 -9 -15 -5 0 5 -11 -5 -24 -20
-14 -16 -23 -32 -20 -36 2 -4 -3 -9 -11 -13 -8 -3 -15 -12 -15 -20 0 -8 -3
-16 -7 -18 -5 -1 -19 -23 -32 -48 -14 -25 -27 -47 -30 -50 -3 -3 -15 -21 -25
-40 -11 -19 -23 -38 -28 -41 -5 -3 -10 -15 -11 -27 0 -11 -4 -19 -8 -17 -3 3
-14 -13 -24 -35 -10 -22 -22 -40 -27 -40 -4 0 -8 -6 -8 -13 0 -7 -9 -23 -19
-34 -11 -12 -18 -23 -15 -26 2 -2 -2 -10 -11 -17 -8 -7 -15 -16 -15 -21 0 -5
-16 -33 -35 -63 -19 -30 -35 -59 -35 -64 0 -6 -11 -20 -24 -33 -13 -13 -21
-29 -18 -38 3 -9 1 -12 -6 -7 -8 5 -12 0 -12 -13 0 -12 -4 -21 -8 -21 -5 0
-17 -18 -27 -40 -10 -22 -22 -40 -27 -40 -5 0 -6 -5 -3 -10 3 -6 -1 -13 -9
-16 -9 -3 -13 -10 -10 -15 3 -5 0 -9 -5 -9 -6 0 -11 -6 -11 -14 0 -7 -7 -19
-15 -26 -8 -7 -12 -16 -9 -21 3 -5 0 -9 -6 -9 -6 0 -8 -4 -5 -10 3 -5 2 -10
-4 -10 -6 0 -13 -11 -17 -25 -3 -14 -10 -23 -14 -20 -4 3 -11 -6 -14 -20 -4
-14 -11 -25 -17 -25 -6 0 -7 -4 -4 -10 3 -5 2 -10 -3 -10 -4 0 -14 -16 -22
-35 -8 -19 -17 -35 -21 -35 -3 0 -12 -13 -19 -30 -7 -16 -17 -27 -23 -23 -6 4
-8 0 -4 -10 3 -10 2 -17 -3 -17 -8 0 -20 -25 -20 -45 0 -5 13 -10 29 -10 18 0
27 4 24 11 -3 7 11 10 41 9 25 0 43 3 40 7 -3 4 3 9 13 10 18 1 31 4 46 8 12
4 27 7 38 9 5 0 7 7 3 14 -5 9 -4 9 6 0 11 -10 17 -10 31 3 11 10 19 12 24 4
4 -7 16 -4 34 10 16 10 31 17 34 14 3 -3 23 0 44 7 21 7 41 12 46 11 4 -1 7 2
7 7 0 5 8 8 17 7 9 -2 28 3 42 10 13 7 28 11 33 8 4 -3 8 -1 8 4 0 5 7 9 15
10 8 1 22 3 30 4 8 1 15 6 15 11 0 5 7 7 15 3 8 -3 15 -1 15 4 0 6 6 10 13 10
26 0 87 21 83 29 -3 4 10 7 29 6 19 -1 32 1 30 4 -2 4 8 11 21 18 18 8 23 8
18 0 -3 -7 0 -5 8 4 7 9 19 14 26 12 6 -3 12 0 12 6 0 6 11 11 25 11 14 0 25
5 25 10 0 6 3 9 8 8 4 -1 19 4 33 10 15 6 35 12 45 14 11 2 22 7 25 11 3 5 12
9 20 10 8 2 21 7 29 12 8 5 21 10 29 12 8 1 18 8 22 15 5 7 9 9 9 5 0 -4 10
-2 23 5 12 7 26 11 30 10 5 -1 21 7 37 18 15 11 35 20 44 20 9 0 16 5 16 10 0
6 9 10 19 10 11 0 27 7 35 16 9 8 25 16 36 17 11 1 20 4 20 7 0 3 29 19 65 35
36 17 65 34 65 38 0 5 5 5 10 2 6 -3 10 -2 10 3 0 6 11 13 25 16 14 4 23 11
20 17 -4 6 3 8 19 5 16 -3 25 0 23 7 -1 6 3 12 8 12 21 3 64 26 130 70 16 11
33 20 37 20 4 0 17 8 28 18 11 9 25 17 31 17 5 0 19 9 31 20 12 10 24 17 28
15 5 -3 11 2 14 11 3 8 10 12 16 9 5 -3 10 -1 10 4 0 6 7 11 15 11 8 0 15 5
15 11 0 5 5 7 10 4 6 -3 10 -1 10 4 0 6 5 11 10 11 6 0 20 9 32 20 12 11 27
20 34 20 6 0 15 7 18 16 3 8 10 13 15 9 6 -3 13 1 18 9 4 8 14 16 22 18 7 2
25 13 39 25 13 13 29 20 35 16 5 -3 7 -2 4 4 -3 5 10 17 29 28 19 10 34 22 34
27 0 4 7 8 15 8 8 0 15 5 15 10 0 6 6 10 14 10 8 0 16 7 20 15 3 8 12 15 20
15 7 0 16 7 20 15 3 8 10 15 16 15 6 0 17 6 24 12 7 7 28 24 47 38 18 14 44
35 56 47 13 12 23 20 23 18 0 -5 42 29 77 62 13 12 23 19 23 16 0 -3 10 6 23
20 12 15 26 27 30 27 5 0 19 12 32 26 14 15 25 25 25 22 0 -2 26 21 59 51 32
31 77 71 99 90 23 19 39 38 36 43 -3 5 -1 7 4 6 5 -2 25 13 44 32 19 19 49 47
67 63 18 15 31 27 28 27 -2 0 30 35 72 79 121 124 219 231 213 231 -4 0 12 17
33 37 22 21 38 38 35 38 -4 0 31 44 62 76 9 9 14 20 11 22 -2 3 5 11 17 17 12
6 19 14 16 17 -3 4 3 12 14 20 11 8 20 21 20 29 0 8 5 12 10 9 6 -3 10 1 10 9
0 9 4 16 8 16 4 0 16 14 27 32 10 18 30 43 43 55 14 13 22 23 19 23 -5 0 72
110 103 147 5 7 10 16 10 22 0 5 13 23 29 40 16 17 27 31 25 31 -6 0 47 81 68
104 10 10 15 22 13 26 -3 4 2 13 10 20 8 7 15 19 15 26 0 8 4 14 8 14 8 0 31
39 75 123 10 20 23 37 29 37 5 0 7 4 3 9 -3 5 -1 12 5 16 6 4 7 12 4 18 -4 7
-3 9 1 4 5 -4 23 21 40 55 18 35 55 107 83 161 28 53 49 97 46 97 -3 0 2 7 11
16 9 9 14 23 11 31 -3 8 -1 11 4 8 6 -3 10 3 10 13 0 11 7 25 15 32 8 7 13 16
10 20 -3 5 -1 11 5 15 6 4 8 10 5 15 -3 5 3 13 12 19 10 6 14 11 9 11 -5 0 -2
8 5 17 8 9 9 14 3 10 -6 -3 4 23 22 58 18 36 31 65 28 65 -2 0 1 10 8 23 7 12
11 25 10 30 -1 4 3 7 10 7 6 0 8 3 5 6 -3 4 -1 16 5 28 7 11 13 24 14 29 1 4
3 9 4 12 1 3 4 10 5 15 1 6 4 13 5 18 1 4 2 10 1 15 0 4 4 7 9 7 5 0 9 3 8 8
-2 11 14 66 23 77 4 6 10 24 13 40 3 15 9 31 13 34 4 3 9 13 10 21 4 34 13 63
24 76 6 8 9 14 6 14 -4 0 0 18 8 39 7 22 11 42 8 45 -4 3 0 6 7 6 7 0 11 3 7
6 -3 4 0 22 8 41 8 19 14 37 13 41 -2 15 15 72 22 72 4 0 6 14 5 30 -1 17 1
30 5 30 4 0 7 6 8 13 3 25 10 62 12 62 2 0 9 27 12 50 2 11 10 26 18 33 8 8 9
11 2 7 -13 -7 -13 -2 8 82 5 24 9 48 8 55 -2 7 3 12 11 10 12 -3 12 0 1 12 -7
9 -8 16 -2 16 5 0 8 14 7 30 -1 17 1 30 5 30 4 0 8 12 8 28 2 35 6 54 14 67 3
6 5 25 3 43 -1 17 1 32 4 32 3 0 7 12 7 28 1 34 11 78 19 92 3 5 0 10 -7 10
-8 0 -9 3 -3 8 6 4 11 25 13 47 5 89 7 105 12 105 3 0 5 17 4 37 -1 21 2 45 6
54 6 10 5 20 -2 27 -9 9 -9 12 1 12 11 0 11 3 1 15 -8 10 -9 15 -2 15 7 0 9 7
5 17 -4 9 -2 14 3 11 5 -4 9 4 9 17 0 13 -3 21 -7 18 -5 -2 -8 1 -8 6 0 6 5
11 11 11 5 0 7 5 4 10 -4 6 -11 8 -16 5 -15 -10 -10 2 8 16 14 12 16 12 8 0
-5 -10 -4 -12 4 -7 8 5 9 12 2 19 -14 18 -14 29 1 38 11 7 10 11 -1 18 -12 8
-12 12 -2 25 11 13 11 16 0 16 -10 0 -10 3 -3 8 13 8 14 479 1 499 -4 6 -2 15
3 18 7 5 5 11 -5 19 -15 11 -15 13 -1 25 14 12 14 15 -2 39 -9 14 -11 23 -4
19 6 -5 12 -4 12 2 0 6 -4 11 -8 11 -12 0 -9 40 3 40 5 0 2 5 -8 11 -14 8 -16
14 -6 25 9 11 8 14 -2 14 -11 0 -11 2 1 10 8 5 10 10 4 10 -6 0 -11 7 -11 15
0 8 5 15 11 15 6 0 5 4 -3 9 -8 5 -11 16 -8 24 3 8 0 20 -6 26 -8 8 -7 11 4
11 12 0 12 2 -1 11 -12 8 -12 12 -2 16 10 4 9 9 -5 20 -10 8 -13 12 -6 9 7 -4
11 1 10 14 -1 11 -4 20 -7 20 -4 0 -7 19 -7 43 -1 51 -5 70 -18 79 -6 5 -5 8
2 8 9 0 10 7 4 23 -4 12 -6 28 -3 36 2 8 1 11 -4 8 -5 -3 -9 15 -8 39 0 24 -2
44 -5 44 -3 0 -7 19 -8 41 -2 23 -8 49 -15 57 -11 13 -11 14 2 7 12 -6 13 -5
3 6 -7 7 -13 30 -13 51 0 21 -4 38 -8 38 -4 0 -8 10 -9 23 -2 45 -8 77 -14 77
-3 0 -7 15 -8 33 -2 17 -3 40 -4 50 -1 9 -5 17 -9 17 -4 0 -8 13 -8 28 0 15
-6 34 -12 41 -9 10 -9 12 -1 7 8 -4 7 2 -2 21 -8 16 -13 37 -11 48 2 11 -3 25
-10 33 -7 7 -11 19 -8 27 4 8 2 15 -3 15 -8 0 -13 18 -16 63 -1 9 -5 17 -9 17
-4 0 -8 11 -8 24 0 13 -6 29 -14 35 -12 10 -16 8 -22 -11z"/>
</g>
</svg>
